<svg width="260" height="24" viewBox="0 0 260 24" fill="none" xmlns="http://www.w3.org/2000/svg">
<g clip-path="url(#clip0_81_6680)">
<path fill-rule="evenodd" clip-rule="evenodd" d="M11.12 0.667973C11.1658 0.667975 11.2118 0.667977 11.258 0.667977C11.3041 0.667977 11.3502 0.667975 11.3959 0.667973C13.3086 0.667874 14.9495 0.667789 16.2621 0.840386C17.666 1.02499 19.0017 1.43999 20.0839 2.49841C21.166 3.55683 21.5904 4.8632 21.7791 6.23631C21.9555 7.52005 21.9555 9.12495 21.9554 10.9956V21.1221C21.9554 22.2468 21.0232 23.1585 19.8733 23.1585C18.7234 23.1585 17.7913 22.2468 17.7913 21.1221V11.1306C17.7913 9.08696 17.7868 7.75905 17.6522 6.77898C17.5254 5.8575 17.3189 5.55382 17.1394 5.37824C16.9599 5.20266 16.6494 5.00066 15.7072 4.87677C14.7052 4.745 13.3475 4.74068 11.258 4.74068C9.16846 4.74068 7.81077 4.745 6.80868 4.87677C5.86652 5.00066 5.55603 5.20266 5.37652 5.37824C5.19699 5.55382 4.99046 5.8575 4.86378 6.77898C4.72906 7.75905 4.72464 9.08696 4.72464 11.1306V21.1221C4.72464 22.2468 3.79248 23.1585 2.6426 23.1585C1.49272 23.1585 0.560557 22.2468 0.560557 21.1221V11.1306C0.560557 11.0855 0.560554 11.0405 0.560552 10.9956C0.560451 9.12495 0.560365 7.52005 0.736837 6.23631C0.925586 4.8632 1.3499 3.55683 2.43206 2.49841C3.51423 1.43999 4.84991 1.02499 6.25383 0.840386C7.56639 0.667789 9.20732 0.667874 11.12 0.667973Z" fill="#EC2327"/>
<path fill-rule="evenodd" clip-rule="evenodd" d="M25.3896 4.27081C25.3896 2.37055 26.9647 0.830078 28.9075 0.830078H38.9588C42.4877 0.830078 45.3485 3.62807 45.3485 7.07957V9.37508C45.3485 12.8266 42.4877 15.6246 38.9588 15.6246H29.5537V21.1233C29.5537 22.248 28.6215 23.1597 27.4717 23.1597C26.3218 23.1597 25.3896 22.248 25.3896 21.1233V4.27081ZM29.5537 11.5519H38.9588C40.1879 11.5519 41.1844 10.5773 41.1844 9.37508V7.07957C41.1844 5.87736 40.1879 4.90278 38.9588 4.90278H29.5537V11.5519Z" fill="#EC2327"/>
<path fill-rule="evenodd" clip-rule="evenodd" d="M191.635 4.22149C191.635 2.32123 193.21 0.780762 195.153 0.780762H205.204C208.733 0.780762 211.594 3.57875 211.594 7.03024V9.32577C211.594 12.7772 208.733 15.5752 205.204 15.5752H195.799V21.074C195.799 22.1986 194.867 23.1103 193.717 23.1103C192.567 23.1103 191.635 22.1986 191.635 21.074V4.22149ZM195.799 11.5026H205.204C206.433 11.5026 207.43 10.528 207.43 9.32577V7.03024C207.43 5.82804 206.433 4.85345 205.204 4.85345H195.799V11.5026Z" fill="#0070C0"/>
<path fill-rule="evenodd" clip-rule="evenodd" d="M243.088 0.870652L242.99 0.870629C242.4 0.870414 241.768 0.870184 241.235 0.940227C240.613 1.022 239.826 1.23133 239.164 1.87842C238.503 2.5255 238.289 3.29519 238.205 3.90343C238.134 4.42441 238.134 5.04289 238.134 5.6207V5.71575V11.2295C238.134 11.2341 238.134 11.2388 238.134 11.2435C238.134 11.2474 238.134 11.2514 238.134 11.2553V21.0741C238.134 22.1988 239.066 23.1105 240.216 23.1105C240.323 23.1105 240.429 23.1025 240.532 23.0872C240.635 23.1025 240.74 23.1105 240.848 23.1105H252.421H252.54C253.089 23.1108 253.554 23.1111 253.973 23.057C256.841 22.6879 259.097 20.4811 259.474 17.6768C259.53 17.2666 259.529 16.8116 259.529 16.275V16.1589V16.0428C259.529 15.5062 259.53 15.0512 259.474 14.641C259.271 13.1329 258.525 11.7977 257.433 10.8281C258.295 9.80543 258.811 8.49532 258.811 7.03038C258.811 3.57889 255.95 0.870652 252.421 0.870652H243.088ZM242.298 13.0969V19.0378H252.421C253.155 19.0378 253.319 19.0334 253.43 19.0192C254.428 18.8906 255.214 18.122 255.346 17.1451C255.36 17.037 255.365 16.8758 255.365 16.1589C255.365 15.4419 255.36 15.2807 255.346 15.1726C255.214 14.1957 254.428 13.2441 253.43 13.1155C253.319 13.1012 253.155 13.0969 252.421 13.0969H242.298ZM252.421 9.20714H242.298V5.71575C242.298 5.40504 242.298 5.15911 242.302 4.94784C242.519 4.94346 242.771 4.94335 243.088 4.94335H252.421C253.65 4.94335 254.647 5.82818 254.647 7.03038C254.647 8.23261 253.65 9.20714 252.421 9.20714Z" fill="#0070C0"/>
<path fill-rule="evenodd" clip-rule="evenodd" d="M108.671 0.757816C108.712 0.757817 108.752 0.757819 108.792 0.757819C108.833 0.757819 108.874 0.757817 108.914 0.757816C110.607 0.757747 112.06 0.757687 113.238 0.880867C114.489 1.01166 115.701 1.3028 116.771 2.06414C117.244 2.40045 117.667 2.79275 118.03 3.23104C118.85 4.22323 119.164 5.34781 119.305 6.50797C119.438 7.60062 119.438 8.9483 119.438 10.5183V13.5844C119.438 15.1543 119.438 16.502 119.305 17.5946C119.164 18.7548 118.85 19.8794 118.03 20.8716C117.667 21.3099 117.244 21.7022 116.771 22.0384C115.701 22.7998 114.489 23.0909 113.238 23.2217C112.06 23.3449 110.607 23.3448 108.914 23.3448H108.671C106.979 23.3448 105.526 23.3449 104.348 23.2217C103.097 23.0909 101.884 22.7998 100.814 22.0384C100.342 21.7022 99.9186 21.3099 99.5556 20.8716C98.7347 19.8794 98.4206 18.7548 98.2797 17.5946C98.1475 16.502 98.1475 15.1542 98.1475 13.5843V10.6307C98.1475 10.5931 98.1475 10.5556 98.1475 10.5183C98.1475 8.9483 98.1475 7.60063 98.2797 6.50797C98.4206 5.34781 98.7347 4.22323 99.5556 3.23104C99.9186 2.79275 100.342 2.40045 100.814 2.06414C101.884 1.3028 103.097 1.01166 104.348 0.880867C105.526 0.757687 106.979 0.757747 108.671 0.757816ZM104.554 4.97457C103.699 5.06394 103.395 5.21313 103.227 5.33246C103.063 5.4496 102.915 5.58625 102.789 5.73891C102.661 5.89442 102.5 6.17671 102.403 6.96948C102.302 7.80376 102.298 8.91684 102.298 10.6307V13.4719C102.298 15.1858 102.302 16.2988 102.403 17.1331C102.5 17.9259 102.661 18.2082 102.789 18.3637C102.915 18.5164 103.063 18.653 103.227 18.7701C103.395 18.8894 103.699 19.0386 104.554 19.128C105.453 19.2221 106.945 19.2252 108.792 19.2252C110.641 19.2252 112.248 19.2221 113.147 19.128C114.002 19.0386 114.307 18.8894 114.474 18.7701C114.639 18.653 114.786 18.5164 114.913 18.3637C115.041 18.2082 115.202 17.9259 115.298 17.1331C115.4 16.2988 115.403 15.1858 115.403 13.4719V10.6307C115.403 8.91684 115.4 7.80376 115.298 6.96948C115.202 6.17671 115.041 5.89442 114.913 5.73891C114.786 5.58625 114.639 5.4496 114.474 5.33246C114.307 5.21313 114.002 5.06394 113.147 4.97457C112.248 4.88051 110.641 4.87745 108.792 4.87745C106.945 4.87745 105.453 4.88051 104.554 4.97457Z" fill="#0070C0"/>
<path fill-rule="evenodd" clip-rule="evenodd" d="M58.5346 0.757816C58.5749 0.757817 58.6153 0.757819 58.6559 0.757819C58.6964 0.757819 58.7368 0.757817 58.7771 0.757816C60.4698 0.757747 61.923 0.757687 63.1011 0.880867C64.352 1.01166 65.5645 1.3028 66.6343 2.06414C67.1069 2.40045 67.5299 2.79275 67.8925 3.23104C68.7134 4.22323 69.0273 5.34781 69.1684 6.50797C69.3011 7.60062 69.3011 8.9483 69.301 10.5183V13.5844C69.3011 15.1543 69.3011 16.502 69.1684 17.5946C69.0273 18.7548 68.7134 19.8794 67.8925 20.8716C67.5299 21.3099 67.1069 21.7022 66.6343 22.0384C65.5645 22.7998 64.352 23.0909 63.1011 23.2217C61.923 23.3449 60.4698 23.3448 58.7771 23.3448H58.5347C56.8419 23.3448 55.3887 23.3449 54.2106 23.2217C52.9597 23.0909 51.7472 22.7998 50.6774 22.0384C50.2048 21.7022 49.7818 21.3099 49.4192 20.8716C48.5983 19.8794 48.2844 18.7548 48.1434 17.5946C48.0106 16.502 48.0106 15.1542 48.0107 13.5843V10.6307C48.0107 10.5931 48.0107 10.5556 48.0107 10.5183C48.0106 8.9483 48.0106 7.60063 48.1434 6.50797C48.2844 5.34781 48.5983 4.22323 49.4192 3.23104C49.7818 2.79275 50.2048 2.40045 50.6774 2.06414C51.7472 1.3028 52.9597 1.01166 54.2106 0.880867C55.3887 0.757687 56.8419 0.757747 58.5346 0.757816ZM54.4173 4.97457C53.5625 5.06394 53.2581 5.21313 53.0904 5.33246C52.9259 5.4496 52.7785 5.58625 52.6522 5.73891C52.5235 5.89442 52.3627 6.17671 52.2663 6.96948C52.1649 7.80376 52.1616 8.91684 52.1616 10.6307V13.4719C52.1616 15.1858 52.1649 16.2988 52.2663 17.1331C52.3627 17.9259 52.5235 18.2082 52.6522 18.3637C52.7785 18.5164 52.9259 18.653 53.0904 18.7701C53.2581 18.8894 53.5625 19.0386 54.4173 19.128C55.3168 19.2221 56.8078 19.2252 58.6559 19.2252C60.5039 19.2252 62.1108 19.2221 63.0104 19.128C63.8652 19.0386 64.1695 18.8894 64.3372 18.7701C64.5018 18.653 64.6491 18.5164 64.7755 18.3637C64.9041 18.2082 65.065 17.9259 65.1613 17.1331C65.2627 16.2988 65.2661 15.1858 65.2661 13.4719V10.6307C65.2661 8.91684 65.2627 7.80376 65.1613 6.96948C65.065 6.17671 64.9041 5.89442 64.7755 5.73891C64.6491 5.58625 64.5018 5.4496 64.3372 5.33246C64.1695 5.21313 63.8652 5.06394 63.0104 4.97457C62.1108 4.88051 60.5039 4.87745 58.6559 4.87745C56.8078 4.87745 55.3168 4.88051 54.4173 4.97457Z" fill="#EC2327"/>
<path fill-rule="evenodd" clip-rule="evenodd" d="M177.932 0.766605C177.973 0.766608 178.013 0.766609 178.053 0.766609C178.094 0.766609 178.134 0.766608 178.174 0.766605C179.867 0.766536 181.321 0.766477 182.499 0.889658C183.75 1.02045 184.962 1.31159 186.032 2.07292C186.505 2.40924 186.928 2.80154 187.29 3.23983C188.111 4.23202 188.425 5.35659 188.566 6.51676C188.699 7.60941 188.699 8.95707 188.699 10.527V13.5932C188.699 15.1631 188.699 16.5107 188.566 17.6034C188.425 18.7636 188.111 19.8882 187.29 20.8804C186.928 21.3186 186.505 21.711 186.032 22.0473C184.962 22.8086 183.75 23.0997 182.499 23.2305C181.321 23.3537 179.867 23.3536 178.174 23.3536H177.932C176.24 23.3536 174.786 23.3537 173.608 23.2305C172.357 23.0997 171.145 22.8086 170.075 22.0473C169.603 21.711 169.18 21.3186 168.817 20.8804C167.996 19.8882 167.682 18.7636 167.541 17.6034C167.409 16.5107 167.409 15.1631 167.409 13.5932V10.6395C167.409 10.602 167.409 10.5644 167.409 10.5271C167.409 8.95714 167.409 7.60942 167.541 6.51676C167.682 5.35659 167.996 4.23202 168.817 3.23983C169.18 2.80154 169.603 2.40924 170.075 2.07292C171.145 1.31159 172.357 1.02045 173.608 0.889658C174.786 0.766477 176.24 0.766536 177.932 0.766605ZM173.815 4.98336C172.96 5.07273 172.656 5.22192 172.488 5.34125C172.324 5.45839 172.176 5.59503 172.05 5.74769C171.921 5.90321 171.761 6.18549 171.664 6.97827C171.563 7.81255 171.559 8.92561 171.559 10.6395V13.4807C171.559 15.1946 171.563 16.3076 171.664 17.1419C171.761 17.9347 171.921 18.217 172.05 18.3725C172.176 18.5252 172.324 18.6618 172.488 18.7789C172.656 18.8983 172.96 19.0474 173.815 19.1368C174.714 19.2309 176.205 19.2339 178.053 19.2339C179.902 19.2339 181.508 19.2309 182.408 19.1368C183.263 19.0474 183.567 18.8983 183.735 18.7789C183.9 18.6618 184.047 18.5252 184.173 18.3725C184.302 18.217 184.463 17.9347 184.559 17.1419C184.661 16.3076 184.664 15.1946 184.664 13.4807V10.6395C184.664 8.92561 184.661 7.81255 184.559 6.97827C184.463 6.18549 184.302 5.90321 184.173 5.74769C184.047 5.59503 183.9 5.45839 183.735 5.34125C183.567 5.22192 183.263 5.07273 182.408 4.98336C181.508 4.8893 179.902 4.88624 178.053 4.88624C176.205 4.88624 174.714 4.8893 173.815 4.98336Z" fill="#0070C0"/>
<path fill-rule="evenodd" clip-rule="evenodd" d="M224.578 0.769535C224.619 0.769536 224.659 0.769536 224.7 0.769536C224.74 0.769536 224.78 0.769536 224.821 0.769535C226.513 0.769466 227.967 0.769404 229.145 0.892585C230.396 1.02338 231.608 1.31452 232.678 2.07586C233.151 2.41216 233.573 2.80447 233.936 3.24275C234.757 4.23495 235.071 5.35952 235.212 6.51969C235.345 7.61233 235.345 8.95999 235.345 10.5299V13.5961C235.345 15.166 235.345 16.5137 235.212 17.6064C235.071 18.7665 234.757 19.8911 233.936 20.8833C233.573 21.3215 233.151 21.7139 232.678 22.0502C231.608 22.8115 230.396 23.1026 229.145 23.2334C227.967 23.3566 226.513 23.3566 224.821 23.3565H224.579C222.886 23.3566 221.432 23.3566 220.254 23.2334C219.003 23.1026 217.791 22.8115 216.721 22.0502C216.248 21.7139 215.826 21.3215 215.463 20.8833C214.642 19.8911 214.328 18.7665 214.187 17.6064C214.055 16.5136 214.055 15.166 214.055 13.5961V10.6425C214.055 10.6049 214.055 10.5673 214.055 10.53C214.055 8.96007 214.055 7.61235 214.187 6.51969C214.328 5.35952 214.642 4.23495 215.463 3.24275C215.826 2.80447 216.248 2.41216 216.721 2.07586C217.791 1.31452 219.003 1.02338 220.254 0.892585C221.432 0.769404 222.886 0.769466 224.578 0.769535ZM220.461 4.98628C219.607 5.07566 219.302 5.22485 219.134 5.34418C218.97 5.46131 218.822 5.59796 218.696 5.75063C218.567 5.90613 218.407 6.18842 218.31 6.98119C218.209 7.81548 218.205 8.92854 218.205 10.6425V13.4836C218.205 15.1975 218.209 16.3106 218.31 17.1448C218.407 17.9376 218.567 18.2199 218.696 18.3754C218.822 18.5281 218.97 18.6647 219.134 18.7818C219.302 18.9012 219.607 19.0504 220.461 19.1397C221.361 19.2338 222.851 19.2368 224.7 19.2368C226.548 19.2368 228.154 19.2338 229.054 19.1397C229.909 19.0504 230.213 18.9012 230.381 18.7818C230.546 18.6647 230.693 18.5281 230.819 18.3754C230.948 18.2199 231.109 17.9376 231.205 17.1448C231.307 16.3106 231.309 15.1975 231.309 13.4836V10.6425C231.309 8.92854 231.307 7.81548 231.205 6.98119C231.109 6.18842 230.948 5.90613 230.819 5.75063C230.693 5.59796 230.546 5.46131 230.381 5.34418C230.213 5.22485 229.909 5.07566 229.054 4.98628C228.154 4.89223 226.548 4.88917 224.7 4.88917C222.851 4.88917 221.361 4.89223 220.461 4.98628Z" fill="#0070C0"/>
<path fill-rule="evenodd" clip-rule="evenodd" d="M90.3639 19.1852L83.9311 5.20231L77.5231 19.1852H90.3639ZM94.686 19.1852L86.7845 2.1141C85.9826 0.482997 81.8613 0.468966 81.0689 2.11211L73.1761 19.1852H72.7579C71.6079 19.1852 70.6758 20.0627 70.6758 21.1452C70.6758 22.2276 71.6079 23.1052 72.7579 23.1052H95.1052C96.2548 23.1052 97.1874 22.2276 97.1874 21.1452C97.1874 20.0627 96.2548 19.1852 95.1052 19.1852H94.686Z" fill="#0070C0"/>
<path fill-rule="evenodd" clip-rule="evenodd" d="M141.661 4.50803L131.085 11.9654L142.25 19.3504C143.202 19.9805 143.452 21.2464 142.808 22.178C142.164 23.1097 140.87 23.3541 139.917 22.7241L127.951 14.8094C127.428 14.4631 127.037 14.0135 126.779 13.513V21.0739C126.779 22.1986 125.847 23.1103 124.697 23.1103C123.547 23.1103 122.616 22.1986 122.616 21.0739V2.81706C122.616 1.69242 123.547 0.78071 124.697 0.78071C125.847 0.78071 126.779 1.69242 126.779 2.81706V10.4058C127.042 9.89471 127.444 9.43701 127.983 9.0886L139.364 1.11003C140.324 0.490067 141.616 0.748155 142.25 1.68649C142.883 2.62482 142.619 3.88807 141.661 4.50803Z" fill="#0070C0"/>
<path fill-rule="evenodd" clip-rule="evenodd" d="M144.781 2.82004C144.781 1.69539 145.713 0.783691 146.863 0.783691H164.094C165.243 0.783691 166.176 1.69539 166.176 2.82004C166.176 3.94468 165.243 4.85638 164.094 4.85638H146.863C145.713 4.85638 144.781 3.94468 144.781 2.82004Z" fill="#0070C0"/>
<path fill-rule="evenodd" clip-rule="evenodd" d="M155.479 0.888184C156.628 0.888184 157.56 1.79989 157.56 2.92453V21.1814C157.56 22.306 156.628 23.2178 155.479 23.2178C154.328 23.2178 153.396 22.306 153.396 21.1814V2.92453C153.396 1.79989 154.328 0.888184 155.479 0.888184Z" fill="#0070C0"/>
</g>
<defs>
<clipPath id="clip0_81_6680">
<rect width="260" height="23" fill="white" transform="translate(0 0.5)"/>
</clipPath>
</defs>
</svg>
