<svg width="246" height="72" viewBox="0 0 246 72" fill="none" xmlns="http://www.w3.org/2000/svg">
<g clip-path="url(#clip0_81_6695)">
<path d="M58.3139 55.0507C58.3139 60.3092 54.0532 64.5723 48.7976 64.5723H42.2325C41.9607 64.5625 41.6939 64.5576 41.431 64.5576C36.271 64.5576 32.7199 66.356 30.6258 68.7795C28.5318 66.356 24.9812 64.5576 19.821 64.5576C19.5582 64.5576 19.2907 64.5625 19.0195 64.5723H12.4541C7.1987 64.5723 2.93785 60.3092 2.93785 55.0507V2.93902H30.6258H58.3139V55.0507ZM58.3139 -0.000976562H2.93785C1.31568 -0.000976562 0 1.31541 0 2.93902V55.0507C0 61.9222 5.58696 67.5119 12.4541 67.5119H19.0195C19.0536 67.5119 19.0881 67.5114 19.1223 67.5098C19.3568 67.5022 19.5918 67.4978 19.8213 67.4978C24.6254 67.4978 27.1402 69.2404 28.4034 70.702C28.9616 71.3483 29.7727 71.7192 30.6258 71.7192C31.4793 71.7192 32.2903 71.3483 32.8483 70.702C34.1117 69.2404 36.6265 67.4978 41.431 67.4978C41.6598 67.4978 41.8946 67.5022 42.1294 67.5098C42.1635 67.5114 42.198 67.5119 42.2325 67.5119H48.7976C55.6648 67.5119 61.2518 61.9222 61.2518 55.0507V2.93902C61.2518 1.31541 59.9362 -0.000976562 58.3139 -0.000976562Z" fill="#C1232E"/>
<path d="M35.26 56.1629H43.3674V58.1863H17.6866V56.1629H25.7939C26.5845 56.1629 27.2279 55.5188 27.2279 54.7278V53.1224C27.6121 53.1896 27.9992 53.2482 28.3892 53.293C29.1393 53.379 29.896 53.4231 30.6399 53.4231C30.6424 53.4231 30.6447 53.4231 30.6478 53.4231C31.7289 53.4231 32.7898 53.3299 33.8261 53.16V54.7278C33.8261 55.5188 34.4695 56.1629 35.26 56.1629ZM24.4549 31.9185L23.4866 30.9498L22.5178 29.9804L40.8365 11.6508L42.7737 13.5896L24.4549 31.9185ZM19.0559 29.9804C19.0559 30.3086 19.1707 30.6159 19.3728 30.8696L18.4674 31.7754C17.9081 32.3349 17.9081 33.2458 18.4674 33.8053L20.632 35.971C20.9029 36.2421 21.2631 36.3918 21.6468 36.3918C22.0307 36.3918 22.3908 36.2421 22.6605 35.9718L23.5662 35.0653C23.8191 35.2677 24.1267 35.3826 24.4549 35.3826C24.8387 35.3826 25.1988 35.2337 25.4686 34.9626L40.3661 20.0566C45.3035 23.5807 48.0138 29.5988 47.3168 35.6674C46.2598 44.8706 37.917 51.5017 28.7166 50.4419C22.949 49.779 17.881 46.1118 15.4204 40.8535H22.999C23.79 40.8535 24.4334 40.2094 24.4334 39.4185C24.4334 38.627 23.79 37.9836 22.999 37.9836H10.6927C9.90229 37.9836 9.25879 38.627 9.25879 39.4185C9.25879 40.2094 9.90229 40.8535 10.6927 40.8535H12.2986C12.421 41.1693 12.55 41.4846 12.6891 41.7939C14.9471 46.826 19.2359 50.6457 24.3601 52.385V53.293H16.2526C15.4619 53.293 14.8184 53.9371 14.8184 54.7278V59.6214C14.8184 60.413 15.4619 61.056 16.2526 61.056H44.8016C45.5924 61.056 46.2359 60.413 46.2359 59.6214V54.7278C46.2359 53.9371 45.5924 53.293 44.8016 53.293H36.6945V52.4674C43.8472 50.152 49.2654 43.8361 50.1657 35.9949C50.9632 29.0508 47.9509 22.1638 42.4181 18.0036L45.8156 14.6038C46.2085 14.2105 46.3194 13.646 46.16 13.1501L47.3633 11.9465C47.6342 11.6754 47.7839 11.3147 47.7839 10.9315C47.7839 10.5484 47.6345 10.1877 47.3636 9.91657L44.5067 7.05902C44.2448 6.79585 43.8752 6.64551 43.493 6.64551C43.1107 6.64551 42.7412 6.79585 42.4788 7.05826L41.2762 8.26187C41.1354 8.21633 40.9889 8.18673 40.8365 8.18673H40.8362C40.4527 8.18673 40.0927 8.33637 39.8228 8.60745L19.4755 28.9662C19.2048 29.2373 19.0559 29.5973 19.0559 29.9804Z" fill="#C1232E"/>
<path d="M87.9976 12.3188V18.3911H84.7682V15.1807H72.0889V0H75.5784V12.3188H82.3407V0H85.8302V12.3188H87.9976Z" fill="#C1232E"/>
<path d="M93.2643 6.54972C92.7441 6.98346 92.4261 7.57697 92.3112 8.32803H98.0543C97.9388 7.59069 97.6208 7.00227 97.1011 6.56132C96.581 6.11962 95.9448 5.89912 95.1933 5.89912C94.4277 5.89912 93.785 6.11599 93.2643 6.54972ZM101.175 10.3015H92.354C92.5128 11.0245 92.8888 11.5962 93.4816 12.0155C94.0733 12.4348 94.8113 12.6445 95.6918 12.6445C96.2987 12.6445 96.8367 12.5541 97.307 12.3734C97.7763 12.1926 98.2141 11.9063 98.6178 11.516L100.417 13.4678C99.3184 14.7264 97.7145 15.3553 95.6051 15.3553C94.29 15.3553 93.1272 15.0979 92.1156 14.5847C91.1039 14.0714 90.3248 13.3601 89.7748 12.4485C89.2259 11.5377 88.9512 10.5047 88.9512 9.34731C88.9512 8.20588 89.2221 7.17576 89.7639 6.25771C90.3058 5.3389 91.0508 4.62395 91.9964 4.10998C92.943 3.59745 94.0012 3.34082 95.1722 3.34082C96.3133 3.34082 97.3461 3.58589 98.2715 4.07745C99.1959 4.56974 99.922 5.27384 100.449 6.19265C100.976 7.11 101.24 8.17623 101.24 9.39144C101.24 9.43406 101.219 9.73767 101.175 10.3015Z" fill="#C1232E"/>
<path d="M103.841 3.51367H107.2V8.06717H112.272V3.51367H115.653V15.1804H112.272V10.8214H107.2V15.1804H103.841V3.51367Z" fill="#C1232E"/>
<path d="M128.679 6.28956H124.735V15.1804H121.375V6.28956H117.431V3.51367H128.679V6.28956Z" fill="#C1232E"/>
<path d="M138.898 11.6999C139.454 11.1143 139.731 10.3307 139.731 9.34685C139.731 8.36444 139.454 7.58008 138.898 6.99383C138.342 6.409 137.63 6.11552 136.763 6.11552C135.896 6.11552 135.184 6.409 134.628 6.99383C134.071 7.58008 133.794 8.36444 133.794 9.34685C133.794 10.3307 134.071 11.1143 134.628 11.6999C135.184 12.2861 135.896 12.5789 136.763 12.5789C137.63 12.5789 138.342 12.2861 138.898 11.6999ZM140.307 4.08853C141.196 4.5866 141.892 5.28853 142.398 6.19213C142.904 7.09576 143.157 8.14757 143.157 9.34685C143.157 10.5468 142.904 11.5986 142.398 12.5023C141.892 13.4059 141.196 14.1071 140.307 14.6059C139.418 15.1047 138.432 15.3548 137.348 15.3548C135.86 15.3548 134.69 14.8842 133.837 13.9451V19.3885H130.456V3.51383H133.685V4.85769C134.523 3.84637 135.745 3.34033 137.348 3.34033C138.432 3.34033 139.418 3.58901 140.307 4.08853Z" fill="#C1232E"/>
<path d="M87.1962 26.0234V41.2042H83.7283V28.8861H78.5266L78.4182 32.0524C78.3462 34.2073 78.1717 35.9531 77.8975 37.2897C77.6233 38.6278 77.1649 39.6543 76.5217 40.3693C75.8786 41.0849 74.9785 41.4428 73.8233 41.4428C73.3465 41.4428 72.7683 41.3632 72.0889 41.2042L72.3061 38.2331C72.4931 38.2909 72.7033 38.3198 72.9342 38.3198C73.7719 38.3198 74.357 37.8254 74.6903 36.8343C75.0224 35.844 75.2321 34.2941 75.3188 32.1825L75.5356 26.0234H87.1962Z" fill="#C1232E"/>
<path d="M96.5375 38.7012C96.9851 38.433 97.3031 38.039 97.4917 37.5192V36.3257H95.1726C93.7854 36.3257 93.0919 36.7811 93.0919 37.692C93.0919 38.1265 93.2609 38.4691 93.6012 38.7229C93.9409 38.9751 94.4059 39.1016 94.9986 39.1016C95.5763 39.1016 96.0894 38.9686 96.5375 38.7012ZM99.4201 30.6554C100.388 31.5149 100.872 32.8125 100.872 34.5474V41.2052H97.7079V39.753C97.0718 40.8373 95.8878 41.3795 94.1533 41.3795C93.2571 41.3795 92.4807 41.2277 91.8239 40.9241C91.1656 40.6204 90.6638 40.2011 90.3176 39.6655C89.9703 39.1306 89.7969 38.5233 89.7969 37.8438C89.7969 36.7594 90.2054 35.9064 91.0215 35.2847C91.8375 34.6638 93.0984 34.3522 94.8041 34.3522H97.4917C97.4917 33.6149 97.2668 33.0474 96.8198 32.6498C96.3717 32.2529 95.6992 32.0534 94.8041 32.0534C94.1821 32.0534 93.5714 32.151 92.9727 32.3462C92.3728 32.5414 91.8635 32.8052 91.4441 33.1378L90.2309 30.7747C90.8665 30.3264 91.6283 29.9795 92.5175 29.7329C93.4056 29.4872 94.3192 29.3643 95.2593 29.3643C97.0653 29.3643 98.4524 29.7944 99.4201 30.6554Z" fill="#C1232E"/>
<path d="M111.85 37.9956C112.377 37.4324 112.64 36.7161 112.64 35.8486C112.64 34.9666 112.377 34.2662 111.85 33.745C111.322 33.2245 110.625 32.9642 109.758 32.9642C108.877 32.9642 108.168 33.2245 107.634 33.745C107.099 34.2662 106.832 34.9666 106.832 35.8486C106.832 36.7312 107.106 37.4505 107.655 38.0071C108.205 38.5631 108.905 38.8421 109.758 38.8421C110.625 38.8421 111.322 38.5594 111.85 37.9956ZM113.486 31.0233C114.323 31.4787 114.97 32.1185 115.425 32.9433C115.881 33.7667 116.108 34.7216 116.108 35.8059C116.108 36.9192 115.837 37.906 115.295 38.7655C114.754 39.6264 113.999 40.2915 113.03 40.7606C112.063 41.2312 110.964 41.4662 109.736 41.4662C107.699 41.4662 106.099 40.8112 104.935 39.5028C103.772 38.1944 103.19 36.2751 103.19 33.745C103.19 31.4035 103.7 29.5349 104.718 28.1389C105.737 26.7438 107.301 25.83 109.412 25.3956L114.959 24.2896L115.415 27.1956L110.516 28.1715C109.187 28.4317 108.201 28.8655 107.558 29.4727C106.915 30.0806 106.536 30.9402 106.42 32.0534C106.926 31.504 107.533 31.0811 108.24 30.7847C108.949 30.4891 109.722 30.3402 110.56 30.3402C111.671 30.3402 112.648 30.5686 113.486 31.0233Z" fill="#C1232E"/>
<path d="M126.003 37.7245C126.558 37.139 126.837 36.3547 126.837 35.3715C126.837 34.3891 126.558 33.6048 126.003 33.0185C125.446 32.4337 124.735 32.1402 123.868 32.1402C123.001 32.1402 122.285 32.4337 121.722 33.0185C121.158 33.6048 120.877 34.3891 120.877 35.3715C120.877 36.3547 121.158 37.139 121.722 37.7245C122.285 38.31 123.001 38.6036 123.868 38.6036C124.735 38.6036 125.446 38.31 126.003 37.7245ZM120.562 40.6088C119.587 40.0956 118.825 39.3843 118.276 38.4727C117.726 37.5618 117.452 36.5289 117.452 35.3715C117.452 34.2149 117.726 33.1819 118.276 32.2703C118.825 31.3594 119.587 30.6481 120.562 30.1341C121.538 29.6216 122.639 29.3643 123.868 29.3643C125.095 29.3643 126.194 29.6216 127.162 30.1341C128.13 30.6481 128.888 31.3594 129.438 32.2703C129.987 33.1819 130.261 34.2149 130.261 35.3715C130.261 36.5289 129.987 37.5618 129.438 38.4727C128.888 39.3843 128.13 40.0956 127.162 40.6088C126.194 41.1221 125.095 41.3795 123.868 41.3795C122.639 41.3795 121.538 41.1221 120.562 40.6088Z" fill="#C1232E"/>
<path d="M141.001 37.724C141.557 37.1385 141.834 36.3541 141.834 35.371C141.834 34.3886 141.557 33.6042 141.001 33.018C140.445 32.4331 139.734 32.1397 138.866 32.1397C138 32.1397 137.287 32.4331 136.731 33.018C136.175 33.6042 135.897 34.3886 135.897 35.371C135.897 36.3541 136.175 37.1385 136.731 37.724C137.287 38.3096 138 38.603 138.866 38.603C139.734 38.603 140.445 38.3096 141.001 37.724ZM142.41 30.1127C143.298 30.6108 143.995 31.3127 144.502 32.2163C145.007 33.1199 145.259 34.1717 145.259 35.371C145.259 36.571 145.007 37.6228 144.502 38.5264C143.995 39.4301 143.298 40.1312 142.41 40.63C141.522 41.1288 140.536 41.3789 139.452 41.3789C137.963 41.3789 136.793 40.9083 135.941 39.9686V45.4127H132.56V29.538H135.788V30.8818C136.627 29.8705 137.847 29.3638 139.452 29.3638C140.536 29.3638 141.522 29.6132 142.41 30.1127Z" fill="#C1232E"/>
<path d="M153.236 38.7012C153.684 38.433 154.001 38.039 154.189 37.5192V36.3257H151.87C150.483 36.3257 149.789 36.7811 149.789 37.692C149.789 38.1265 149.96 38.4691 150.298 38.7229C150.638 38.9751 151.105 39.1016 151.697 39.1016C152.275 39.1016 152.788 38.9686 153.236 38.7012ZM156.118 30.6554C157.087 31.5149 157.571 32.8125 157.571 34.5474V41.2052H154.406V39.753C153.77 40.8373 152.585 41.3795 150.852 41.3795C149.956 41.3795 149.179 41.2277 148.521 40.9241C147.864 40.6204 147.362 40.2011 147.015 39.6655C146.669 39.1306 146.495 38.5233 146.495 37.8438C146.495 36.7594 146.903 35.9064 147.72 35.2847C148.536 34.6638 149.797 34.3522 151.501 34.3522H154.189C154.189 33.6149 153.966 33.0474 153.517 32.6498C153.069 32.2529 152.398 32.0534 151.501 32.0534C150.881 32.0534 150.27 32.151 149.67 32.3462C149.07 32.5414 148.562 32.8052 148.142 33.1378L146.928 30.7747C147.564 30.3264 148.327 29.9795 149.215 29.7329C150.104 29.4872 151.017 29.3643 151.956 29.3643C153.762 29.3643 155.15 29.7944 156.118 30.6554Z" fill="#C1232E"/>
<path d="M170.313 32.314H166.368V41.2049H163.01V32.314H159.065V29.5381H170.313V32.314Z" fill="#C1232E"/>
<path d="M179.233 37.7245C179.79 37.139 180.067 36.3547 180.067 35.3715C180.067 34.3891 179.79 33.6048 179.233 33.0185C178.678 32.4337 177.965 32.1402 177.098 32.1402C176.232 32.1402 175.516 32.4337 174.952 33.0185C174.389 33.6048 174.107 34.3891 174.107 35.3715C174.107 36.3547 174.389 37.139 174.952 37.7245C175.516 38.31 176.232 38.6036 177.098 38.6036C177.965 38.6036 178.678 38.31 179.233 37.7245ZM173.793 40.6088C172.818 40.0956 172.056 39.3843 171.507 38.4727C170.957 37.5618 170.683 36.5289 170.683 35.3715C170.683 34.2149 170.957 33.1819 171.507 32.2703C172.056 31.3594 172.818 30.6481 173.793 30.1341C174.768 29.6216 175.87 29.3643 177.098 29.3643C178.326 29.3643 179.425 29.6216 180.393 30.1341C181.361 30.6481 182.119 31.3594 182.668 32.2703C183.218 33.1819 183.492 34.2149 183.492 35.3715C183.492 36.5289 183.218 37.5618 182.668 38.4727C182.119 39.3843 181.361 40.0956 180.393 40.6088C179.425 41.1221 178.326 41.3795 177.098 41.3795C175.87 41.3795 174.768 41.1221 173.793 40.6088Z" fill="#C1232E"/>
<path d="M194.232 37.724C194.788 37.1385 195.066 36.3541 195.066 35.371C195.066 34.3886 194.788 33.6042 194.232 33.018C193.675 32.4331 192.964 32.1397 192.097 32.1397C191.23 32.1397 190.518 32.4331 189.962 33.018C189.405 33.6042 189.127 34.3886 189.127 35.371C189.127 36.3541 189.405 37.1385 189.962 37.724C190.518 38.3096 191.23 38.603 192.097 38.603C192.964 38.603 193.675 38.3096 194.232 37.724ZM195.64 30.1127C196.529 30.6108 197.226 31.3127 197.732 32.2163C198.238 33.1199 198.49 34.1717 198.49 35.371C198.49 36.571 198.238 37.6228 197.732 38.5264C197.226 39.4301 196.529 40.1312 195.64 40.63C194.752 41.1288 193.765 41.3789 192.681 41.3789C191.194 41.3789 190.024 40.9083 189.171 39.9686V45.4127H185.789V29.538H189.019V30.8818C189.857 29.8705 191.078 29.3638 192.681 29.3638C193.765 29.3638 194.752 29.6132 195.64 30.1127Z" fill="#C1232E"/>
<path d="M200.853 29.5381H204.212V34.0923H209.284V29.5381H212.665V41.2049H209.284V36.8458H204.212V41.2049H200.853V29.5381Z" fill="#C1232E"/>
<path d="M227.901 29.5376H231.26V41.2044H227.901V29.5376ZM222.764 38.4068C223.111 38.1183 223.285 37.6838 223.285 37.1056C223.285 36.5417 223.115 36.1304 222.776 35.8694C222.436 35.6092 221.934 35.4726 221.27 35.4574L219.254 35.4357V38.8195H221.27C221.919 38.8332 222.419 38.6966 222.764 38.4068ZM225.473 34.2863C226.254 34.9521 226.644 35.9055 226.644 37.1489C226.644 38.4509 226.203 39.4549 225.322 40.1634C224.441 40.8718 223.191 41.2268 221.573 41.2268L215.894 41.2044V29.5376H219.254V33.267H222.027C223.544 33.2815 224.693 33.6219 225.473 34.2863Z" fill="#C1232E"/>
<path d="M241.838 41.2049L239.28 37.6265L236.637 41.2049H232.952L237.439 35.3277L233.104 29.5381H236.897L239.368 32.9429L241.904 29.5381H245.501L241.167 35.241L245.675 41.2049H241.838Z" fill="#C1232E"/>
<path d="M72.0889 52.0479H75.5784V61.937L82.8175 52.0479H86.1125V67.2286H82.6446V57.3611L75.405 67.2286H72.0889V52.0479Z" fill="#C1232E"/>
<path d="M91.8224 66.6328C90.833 66.1193 90.0592 65.408 89.5033 64.4966C88.9473 63.5858 88.6699 62.5529 88.6699 61.3954C88.6699 60.239 88.9473 59.2056 89.5033 58.2942C90.0592 57.3834 90.833 56.672 91.8224 56.1581C92.8124 55.6457 93.9286 55.3882 95.1721 55.3882C96.3994 55.3882 97.4723 55.6457 98.3896 56.1581C99.3075 56.672 99.9756 57.4056 100.394 58.3598L97.7719 59.7689C97.165 58.6997 96.2905 58.1641 95.1494 58.1641C94.2683 58.1641 93.5384 58.4541 92.9603 59.0321C92.3827 59.6101 92.0933 60.3978 92.0933 61.3954C92.0933 62.393 92.3827 63.1819 92.9603 63.7598C93.5384 64.3378 94.2683 64.6273 95.1494 64.6273C96.3057 64.6273 97.1797 64.0927 97.7719 63.0219L100.394 64.4538C99.9756 65.3793 99.3075 66.102 98.3896 66.6225C97.4723 67.1424 96.3994 67.4032 95.1721 67.4032C93.9286 67.4032 92.8124 67.1462 91.8224 66.6328Z" fill="#C1232E"/>
<path d="M104.503 66.6328C103.513 66.1193 102.74 65.408 102.184 64.4966C101.627 63.5858 101.349 62.5529 101.349 61.3954C101.349 60.239 101.627 59.2056 102.184 58.2942C102.74 57.3834 103.513 56.672 104.503 56.1581C105.492 55.6457 106.608 55.3882 107.851 55.3882C109.08 55.3882 110.152 55.6457 111.069 56.1581C111.987 56.672 112.655 57.4056 113.075 58.3598L110.452 59.7689C109.845 58.6997 108.971 58.1641 107.829 58.1641C106.948 58.1641 106.219 58.4541 105.641 59.0321C105.062 59.6101 104.774 60.3978 104.774 61.3954C104.774 62.393 105.062 63.1819 105.641 63.7598C106.219 64.3378 106.948 64.6273 107.829 64.6273C108.986 64.6273 109.859 64.0927 110.452 63.0219L113.075 64.4538C112.655 65.3793 111.987 66.102 111.069 66.6225C110.152 67.1424 109.08 67.4032 107.851 67.4032C106.608 67.4032 105.492 67.1462 104.503 66.6328Z" fill="#C1232E"/>
<path d="M126.144 55.5615V67.2279H122.762V58.3374H119.077L118.969 60.3966C118.911 61.9293 118.767 63.2023 118.535 64.2135C118.305 65.2262 117.93 66.021 117.409 66.599C116.888 67.1775 116.166 67.4665 115.242 67.4665C114.75 67.4665 114.165 67.3797 113.485 67.2062L113.659 64.4303C113.89 64.4596 114.056 64.4748 114.158 64.4748C114.663 64.4748 115.043 64.2894 115.295 63.9207C115.548 63.552 115.718 63.083 115.804 62.511C115.891 61.9407 115.956 61.1854 116.001 60.2448L116.174 55.5615H126.144Z" fill="#C1232E"/>
<path d="M132.754 58.5978C132.233 59.0321 131.915 59.6252 131.8 60.3761H137.544C137.428 59.6388 137.109 59.0505 136.59 58.6092C136.07 58.1679 135.433 57.9478 134.683 57.9478C133.917 57.9478 133.274 58.1641 132.754 58.5978ZM140.664 62.3496H131.843C132.002 63.0723 132.378 63.6438 132.97 64.0629C133.562 64.4831 134.299 64.6923 135.181 64.6923C135.787 64.6923 136.325 64.6023 136.796 64.4213C137.264 64.2407 137.702 63.9544 138.106 63.5641L139.906 65.5159C138.808 66.7737 137.203 67.4032 135.094 67.4032C133.779 67.4032 132.616 67.1462 131.604 66.6328C130.593 66.1193 129.813 65.408 129.264 64.4966C128.714 63.5858 128.44 62.5529 128.44 61.3954C128.44 60.2541 128.711 59.224 129.253 58.3056C129.795 57.3872 130.539 56.672 131.486 56.1581C132.432 55.6457 133.49 55.3882 134.661 55.3882C135.803 55.3882 136.835 55.6338 137.76 56.1255C138.684 56.6178 139.41 57.3221 139.938 58.2405C140.466 59.1579 140.73 60.2243 140.73 61.4393C140.73 61.4822 140.708 61.7858 140.664 62.3496Z" fill="#C1232E"/>
<path d="M147.092 62.7388C146.953 63.4907 146.697 64.0616 146.322 64.4531H151.242V58.3374H147.428L147.363 59.8327C147.319 61.019 147.228 61.9873 147.092 62.7388ZM156.292 64.4531V69.7447H153.15V67.2279H144.957V69.7447H141.813V64.4531H142.29C143.013 64.4384 143.511 64.0112 143.786 63.1725C144.061 62.3348 144.233 61.1415 144.306 59.5953L144.458 55.5615H154.623V64.4531H156.292Z" fill="#C1232E"/>
<path d="M166.012 63.7484C166.569 63.1629 166.847 62.3784 166.847 61.3954C166.847 60.413 166.569 59.6285 166.012 59.0424C165.456 58.4574 164.744 58.1641 163.877 58.1641C163.011 58.1641 162.296 58.4574 161.732 59.0424C161.168 59.6285 160.887 60.413 160.887 61.3954C160.887 62.3784 161.168 63.1629 161.732 63.7484C162.296 64.334 163.011 64.6273 163.877 64.6273C164.744 64.6273 165.456 64.334 166.012 63.7484ZM160.573 66.6328C159.597 66.1193 158.835 65.408 158.286 64.4966C157.736 63.5858 157.462 62.5529 157.462 61.3954C157.462 60.239 157.736 59.2056 158.286 58.2942C158.835 57.3834 159.597 56.672 160.573 56.1581C161.548 55.6457 162.649 55.3882 163.877 55.3882C165.105 55.3882 166.204 55.6457 167.172 56.1581C168.141 56.672 168.898 57.3834 169.448 58.2942C169.997 59.2056 170.272 60.239 170.272 61.3954C170.272 62.5529 169.997 63.5858 169.448 64.4966C168.898 65.408 168.141 66.1193 167.172 66.6328C166.204 67.1462 165.105 67.4032 163.877 67.4032C162.649 67.4032 161.548 67.1462 160.573 66.6328Z" fill="#C1232E"/>
<path d="M180.392 63.6501C180.392 63.2028 180.247 62.8738 179.959 62.6634C179.67 62.4547 179.215 62.3489 178.592 62.3489H175.689V64.9302H178.529C179.77 64.9302 180.392 64.5041 180.392 63.6501ZM175.689 60.3543H178.247C179.431 60.3543 180.024 59.9352 180.024 59.0959C180.024 58.2724 179.431 57.8598 178.247 57.8598H175.689V60.3543ZM183.556 63.9109C183.556 64.966 183.159 65.7825 182.365 66.361C181.569 66.94 180.385 67.2284 178.81 67.2284H172.59V55.5615H178.55C180.009 55.5615 181.15 55.8256 181.975 56.3525C182.798 56.8812 183.21 57.6212 183.21 58.576C183.21 59.1539 183.062 59.6641 182.766 60.1044C182.469 60.5451 182.047 60.8894 181.498 61.135C182.87 61.5969 183.556 62.523 183.556 63.9109Z" fill="#C1232E"/>
<path d="M191.88 64.7249C192.328 64.457 192.646 64.0629 192.834 63.5429V62.3496H190.515C189.128 62.3496 188.433 62.8051 188.433 63.7159C188.433 64.1502 188.604 64.4928 188.943 64.7466C189.282 64.9992 189.749 65.1255 190.341 65.1255C190.919 65.1255 191.432 64.9927 191.88 64.7249ZM194.763 56.6791C195.731 57.539 196.215 58.8364 196.215 60.5713V67.2291H193.051V65.7767C192.414 66.861 191.23 67.4032 189.496 67.4032C188.6 67.4032 187.823 67.2514 187.166 66.9478C186.508 66.6441 186.007 66.2251 185.66 65.6894C185.313 65.1543 185.14 64.547 185.14 63.8677C185.14 62.7834 185.547 61.9305 186.364 61.3087C187.18 60.6879 188.441 60.3761 190.146 60.3761H192.834C192.834 59.6388 192.61 59.0711 192.162 58.6737C191.714 58.2769 191.042 58.0773 190.146 58.0773C189.525 58.0773 188.914 58.1749 188.315 58.3701C187.715 58.5653 187.206 58.8293 186.787 59.1617L185.573 56.7984C186.208 56.3505 186.971 56.0035 187.86 55.7569C188.748 55.5113 189.662 55.3882 190.6 55.3882C192.407 55.3882 193.794 55.8181 194.763 56.6791Z" fill="#C1232E"/>
<path d="M199.162 55.5615H202.522V60.1157H207.593V55.5615H210.974V67.2284H207.593V62.8694H202.522V67.2284H199.162V55.5615Z" fill="#C1232E"/>
<path d="M214.203 55.5615H217.564V62.5007L223.241 55.5615H226.341V67.2284H222.982V60.2892L217.325 67.2284H214.203V55.5615Z" fill="#C1232E"/>
<path d="M231.607 50.9419H233.818C233.832 51.4479 233.973 51.8419 234.241 52.1245C234.508 52.4057 234.902 52.5474 235.423 52.5474C235.942 52.5474 236.343 52.4057 236.626 52.1245C236.907 51.8419 237.048 51.4479 237.048 50.9419H239.302C239.287 53.1836 238.001 54.3033 235.444 54.3033C232.9 54.3033 231.622 53.1836 231.607 50.9419ZM229.592 55.5617H232.952V62.5009L238.63 55.5617H241.729V67.2286H238.37V60.2894L232.713 67.2286H229.592V55.5617Z" fill="#C1232E"/>
</g>
<defs>
<clipPath id="clip0_81_6695">
<rect width="246" height="72" fill="white"/>
</clipPath>
</defs>
</svg>
