<svg width="31" height="31" viewBox="0 0 31 31" fill="none" xmlns="http://www.w3.org/2000/svg">
<path d="M4.15812 5.52938C4.06805 5.43931 3.9966 5.33238 3.94786 5.2147C3.89911 5.09702 3.87402 4.97089 3.87402 4.84351C3.87402 4.71613 3.89911 4.59 3.94786 4.47232C3.9966 4.35463 4.06805 4.2477 4.15812 4.15763C4.24819 4.06756 4.35512 3.99612 4.4728 3.94737C4.59049 3.89862 4.71662 3.87354 4.844 3.87354C4.97138 3.87354 5.09751 3.89862 5.21519 3.94737C5.33287 3.99612 5.4398 4.06756 5.52987 4.15763L15.5002 14.1299L25.4706 4.15763C25.5607 4.06756 25.6676 3.99612 25.7853 3.94737C25.903 3.89862 26.0291 3.87354 26.1565 3.87354C26.2839 3.87354 26.41 3.89862 26.5277 3.94737C26.6454 3.99612 26.7523 4.06756 26.8424 4.15763C26.9324 4.2477 27.0039 4.35463 27.0526 4.47232C27.1014 4.59 27.1265 4.71613 27.1265 4.84351C27.1265 4.97089 27.1014 5.09702 27.0526 5.2147C27.0039 5.33238 26.9324 5.43931 26.8424 5.52938L16.8701 15.4998L26.8424 25.4701C26.9324 25.5602 27.0039 25.6671 27.0526 25.7848C27.1014 25.9025 27.1265 26.0286 27.1265 26.156C27.1265 26.2834 27.1014 26.4095 27.0526 26.5272C27.0039 26.6449 26.9324 26.7518 26.8424 26.8419C26.7523 26.932 26.6454 27.0034 26.5277 27.0521C26.41 27.1009 26.2839 27.126 26.1565 27.126C26.0291 27.126 25.903 27.1009 25.7853 27.0521C25.6676 27.0034 25.5607 26.932 25.4706 26.8419L15.5002 16.8696L5.52987 26.8419C5.4398 26.932 5.33287 27.0034 5.21519 27.0521C5.09751 27.1009 4.97138 27.126 4.844 27.126C4.71662 27.126 4.59049 27.1009 4.4728 27.0521C4.35512 27.0034 4.24819 26.932 4.15812 26.8419C4.06805 26.7518 3.9966 26.6449 3.94786 26.5272C3.89911 26.4095 3.87402 26.2834 3.87402 26.156C3.87402 26.0286 3.89911 25.9025 3.94786 25.7848C3.9966 25.6671 4.06805 25.5602 4.15812 25.4701L14.1304 15.4998L4.15812 5.52938Z" fill="black"/>
</svg>
