<svg width="80" height="80" viewBox="0 0 80 80" fill="none" xmlns="http://www.w3.org/2000/svg">
<path d="M73.3346 11.1024V55.7532C73.3346 58.0495 71.4722 59.9119 69.1759 59.9119H67.8849C68.2341 58.5363 68.4192 57.0918 68.4192 55.605C68.4192 45.9702 60.6098 38.1606 50.9748 38.1606C41.3398 38.1606 33.5251 45.9702 33.5251 55.605C33.5251 57.0918 33.7103 58.5363 34.0595 59.9119H10.8267C8.53041 59.9119 6.66797 58.0495 6.66797 55.7532V11.1024C6.66797 8.80608 8.53041 6.94897 10.8267 6.94897H69.1759C71.4722 6.9489 73.3346 8.80601 73.3346 11.1024Z" stroke="black" stroke-linecap="round" stroke-linejoin="round"/>
<path d="M73.3346 17.6255V11.1039C73.3346 8.8076 71.4732 6.94604 69.1768 6.94604H10.8258C8.52952 6.94604 6.66797 8.80753 6.66797 11.1039V17.6255H73.3346Z" stroke="black" stroke-linecap="round" stroke-linejoin="round"/>
<path d="M16.8359 12.2832C16.8359 13.6377 15.7353 14.7382 14.3808 14.7382C13.0263 14.7382 11.9258 13.6377 11.9258 12.2832C11.9258 10.9287 13.0263 9.8335 14.3808 9.8335C15.7353 9.83342 16.8359 10.9287 16.8359 12.2832Z" stroke="black" stroke-linecap="round" stroke-linejoin="round"/>
<path d="M26.4101 12.2832C26.4101 13.6377 25.3096 14.7382 23.955 14.7382C22.6005 14.7382 21.5 13.6377 21.5 12.2832C21.5 10.9287 22.6005 9.8335 23.955 9.8335C25.3096 9.83342 26.4101 10.9287 26.4101 12.2832Z" stroke="black" stroke-linecap="round" stroke-linejoin="round"/>
<path d="M35.9804 12.2832C35.9804 13.6377 34.8799 14.7382 33.5253 14.7382C32.1708 14.7382 31.0703 13.6377 31.0703 12.2832C31.0703 10.9287 32.1708 9.8335 33.5253 9.8335C34.8799 9.83342 35.9804 10.9287 35.9804 12.2832Z" stroke="black" stroke-linecap="round" stroke-linejoin="round"/>
<path d="M68.4176 55.6039C68.4176 57.0906 68.2324 58.5351 67.8832 59.9108C65.9625 67.4663 59.1213 73.0537 50.9731 73.0537C42.825 73.0537 35.9784 67.4663 34.0578 59.9108C33.7086 58.5351 33.5234 57.0906 33.5234 55.6039C33.5234 45.969 41.3383 38.1594 50.9731 38.1594C60.608 38.1594 68.4176 45.969 68.4176 55.6039Z" stroke="black" stroke-linecap="round" stroke-linejoin="round"/>
<path d="M45.6286 52.9782L39.8455 55.809L45.5809 58.5868C45.7185 58.6608 45.8085 58.719 45.8772 58.7666C46.0148 58.8671 46.1153 59.0047 46.1788 59.174C46.2264 59.2957 46.2529 59.4385 46.2688 59.6079C46.2794 59.7402 46.29 59.92 46.29 60.1422C46.29 60.3433 46.2794 60.5073 46.2635 60.6343C46.2371 60.8407 46.1789 60.9994 46.0836 61.1211C45.9513 61.2904 45.7609 61.3856 45.5545 61.3856C45.5227 61.3856 45.491 61.3856 45.4646 61.3803C45.3429 61.3645 45.2211 61.3221 45.0836 61.248L36.8349 57.0788C36.6339 56.9783 36.491 56.7879 36.4011 56.5127C36.3429 56.3276 36.3164 56.0894 36.3164 55.7773C36.3164 55.645 36.3217 55.5233 36.3323 55.4069C36.3482 55.2587 36.3799 55.137 36.4222 55.0312C36.4592 54.9307 36.5069 54.8407 36.5597 54.7613C36.6444 54.6343 36.7608 54.5444 36.8931 54.4862L45.0994 50.3487C45.5862 50.1159 45.9354 50.2852 46.0994 50.5233C46.2317 50.7084 46.2899 50.9783 46.2899 51.4492C46.2899 51.6714 46.2793 51.846 46.2687 51.9783C46.2581 52.137 46.2317 52.2693 46.1946 52.3857C46.1364 52.555 46.0465 52.6926 45.9248 52.7931C45.8508 52.8566 45.7503 52.9201 45.6286 52.9782Z" stroke="black" stroke-linecap="round" stroke-linejoin="round"/>
<path d="M55.4755 46.6239C55.5073 46.7932 55.4914 46.9731 55.4173 47.1583L49.0787 64.5392C49.0311 64.6926 48.9622 64.8249 48.8723 64.9308C48.7665 65.0472 48.6395 65.1372 48.4914 65.1953C48.3802 65.2377 48.2586 65.2694 48.1157 65.2906C47.9888 65.3064 47.8406 65.317 47.6659 65.317C47.4543 65.317 47.2744 65.3012 47.121 65.2694C46.9305 65.227 46.7771 65.1635 46.6554 65.0736C46.486 64.9519 46.3749 64.7826 46.3326 64.5868C46.2956 64.4069 46.322 64.2164 46.4119 64.0206L52.74 46.6608C52.7824 46.5286 52.8511 46.391 52.9464 46.2799C53.0416 46.174 53.158 46.0841 53.2903 46.026C53.4068 45.9677 53.5496 45.9307 53.7189 45.9148C53.9888 45.8884 54.4226 45.8831 54.6925 45.9466C54.8724 45.9837 55.0152 46.0419 55.1316 46.1212C55.3114 46.2377 55.4331 46.4175 55.4755 46.6239Z" stroke="black" stroke-linecap="round" stroke-linejoin="round"/>
<path d="M65.6287 55.8197C65.6287 55.9679 65.6181 56.1001 65.6022 56.2165C65.5811 56.3435 65.5599 56.4493 65.5334 56.5393C65.4858 56.6874 65.4223 56.8091 65.3324 56.9044C65.2531 56.9943 65.1631 57.0631 65.0625 57.1107L56.8297 61.2641C56.671 61.3382 56.544 61.37 56.4223 61.3805H56.3799C56.1525 61.3805 55.9461 61.2641 55.8191 61.0684C55.745 60.9519 55.6922 60.8091 55.671 60.6292C55.6551 60.5075 55.6445 60.3541 55.6445 60.1636C55.6445 59.9519 55.6499 59.7879 55.6551 59.6609C55.6657 59.4916 55.6869 59.354 55.7292 59.2323C55.7821 59.0683 55.872 58.9307 55.9991 58.8249C56.0837 58.7508 56.1842 58.6873 56.3112 58.6344L62.0837 55.7931L56.3429 53.0259C56.2265 52.973 56.126 52.9148 56.0413 52.8513C55.9038 52.7561 55.8033 52.6133 55.7398 52.4333C55.6922 52.3116 55.6657 52.1635 55.6551 51.9836C55.6499 51.8566 55.6445 51.6821 55.6445 51.4704C55.6445 51.2587 55.6551 51.0894 55.671 50.973C55.6975 50.7879 55.7451 50.6397 55.8245 50.5233C55.9673 50.317 56.2001 50.2059 56.4541 50.2429C56.5864 50.2587 56.708 50.3011 56.8456 50.3752L65.0943 54.5287C65.2954 54.6292 65.4382 54.8197 65.5335 55.0948C65.597 55.2853 65.6287 55.5234 65.6287 55.8197Z" stroke="black" stroke-linecap="round" stroke-linejoin="round"/>
<path d="M12.3594 23.0608H67.6452" stroke="black" stroke-linecap="round" stroke-linejoin="round"/>
<path d="M12.3594 30.3433H67.6452" stroke="black" stroke-linecap="round" stroke-linejoin="round"/>
<path d="M12.3594 37.626H34.5497" stroke="black" stroke-linecap="round" stroke-linejoin="round"/>
<path d="M12.3594 44.9087H31.0723" stroke="black" stroke-linecap="round" stroke-linejoin="round"/>
<path d="M12.3594 52.1914H27.5948" stroke="black" stroke-linecap="round" stroke-linejoin="round"/>
</svg>
