<svg width="50" height="27" viewBox="0 0 50 27" fill="none" xmlns="http://www.w3.org/2000/svg">
<path d="M4.2 2.1C4.2 3.3 3.3 4.2 2.1 4.2C0.899998 4.2 0 3.3 0 2.1C0 0.9 0.899998 0 2.1 0C3.3 0 4.2 0.9 4.2 2.1Z" fill="#486AD7"/>
<path d="M15.4998 2.1C15.4998 3.3 14.5998 4.2 13.3998 4.2C12.1998 4.2 11.2998 3.3 11.2998 2.1C11.2998 0.9 12.1998 0 13.3998 0C14.4998 0 15.4998 0.9 15.4998 2.1Z" fill="#486AD7"/>
<path d="M26.7 2.1C26.7 3.3 25.8 4.2 24.6 4.2C23.4 4.2 22.5 3.3 22.5 2.1C22.5 0.9 23.5 0 24.6 0C25.8 0 26.7 0.9 26.7 2.1Z" fill="#486AD7"/>
<path d="M37.9998 2.1C37.9998 3.3 37.0998 4.2 35.8998 4.2C34.6998 4.2 33.7998 3.3 33.7998 2.1C33.7998 0.9 34.6998 0 35.8998 0C37.0998 0 37.9998 0.9 37.9998 2.1Z" fill="#486AD7"/>
<path d="M49.2996 2.1C49.2996 3.3 48.3996 4.2 47.1996 4.2C45.9996 4.2 45.0996 3.3 45.0996 2.1C45.0996 0.9 45.9996 0 47.1996 0C48.2996 0 49.2996 0.9 49.2996 2.1Z" fill="#486AD7"/>
<path d="M4.2 13.3C4.2 14.5 3.3 15.4 2.1 15.4C0.899998 15.4 0 14.5 0 13.3C0 12.1 0.899998 11.2 2.1 11.2C3.3 11.2 4.2 12.2 4.2 13.3Z" fill="#486AD7"/>
<path d="M15.4998 13.3C15.4998 14.5 14.5998 15.4 13.3998 15.4C12.1998 15.4 11.2998 14.5 11.2998 13.3C11.2998 12.1 12.1998 11.2 13.3998 11.2C14.4998 11.2 15.4998 12.2 15.4998 13.3Z" fill="#486AD7"/>
<path d="M26.7 13.3C26.7 14.5 25.8 15.4 24.6 15.4C23.4 15.4 22.5 14.5 22.5 13.3C22.5 12.1 23.4 11.2 24.6 11.2C25.8 11.2 26.7 12.2 26.7 13.3Z" fill="#486AD7"/>
<path d="M37.9998 13.3C37.9998 14.5 37.0998 15.4 35.8998 15.4C34.6998 15.4 33.7998 14.5 33.7998 13.3C33.7998 12.1 34.6998 11.2 35.8998 11.2C37.0998 11.2 37.9998 12.2 37.9998 13.3Z" fill="#486AD7"/>
<path d="M49.2996 13.3C49.2996 14.5 48.3996 15.4 47.1996 15.4C45.9996 15.4 45.0996 14.5 45.0996 13.3C45.0996 12.1 45.9996 11.2 47.1996 11.2C48.2996 11.2 49.2996 12.2 49.2996 13.3Z" fill="#486AD7"/>
<path d="M4.2 24.6C4.2 25.8 3.3 26.7 2.1 26.7C0.899998 26.7 0 25.8 0 24.6C0 23.4 0.899998 22.5 2.1 22.5C3.3 22.5 4.2 23.4 4.2 24.6Z" fill="#486AD7"/>
<path d="M15.4998 24.6C15.4998 25.8 14.5998 26.7 13.3998 26.7C12.1998 26.7 11.2998 25.8 11.2998 24.6C11.2998 23.4 12.1998 22.5 13.3998 22.5C14.4998 22.5 15.4998 23.4 15.4998 24.6Z" fill="#486AD7"/>
<path d="M26.7 24.6C26.7 25.8 25.8 26.7 24.6 26.7C23.4 26.7 22.5 25.8 22.5 24.6C22.5 23.4 23.4 22.5 24.6 22.5C25.8 22.5 26.7 23.4 26.7 24.6Z" fill="#486AD7"/>
<path d="M37.9998 24.6C37.9998 25.8 37.0998 26.7 35.8998 26.7C34.6998 26.7 33.7998 25.8 33.7998 24.6C33.7998 23.4 34.6998 22.5 35.8998 22.5C37.0998 22.5 37.9998 23.4 37.9998 24.6Z" fill="#486AD7"/>
<path d="M49.2996 24.6C49.2996 25.8 48.3996 26.7 47.1996 26.7C45.9996 26.7 45.0996 25.8 45.0996 24.6C45.0996 23.4 45.9996 22.5 47.1996 22.5C48.2996 22.5 49.2996 23.4 49.2996 24.6Z" fill="#486AD7"/>
</svg>
