<svg width="20" height="20" viewBox="0 0 20 20" fill="none" xmlns="http://www.w3.org/2000/svg">
<path d="M10.8836 1.87502C10.6492 1.64068 10.3313 1.50903 9.99981 1.50903C9.66836 1.50903 9.35047 1.64068 9.11606 1.87502L0.807313 10.1825C0.749203 10.2406 0.703108 10.3096 0.671659 10.3855C0.64021 10.4615 0.624023 10.5428 0.624023 10.625C0.624023 10.7072 0.64021 10.7886 0.671659 10.8645C0.703108 10.9404 0.749203 11.0094 0.807313 11.0675C0.924671 11.1849 1.08384 11.2508 1.24981 11.2508C1.33199 11.2508 1.41337 11.2346 1.48929 11.2032C1.56522 11.1717 1.6342 11.1256 1.69231 11.0675L9.99981 2.75877L18.3073 11.0675C18.4247 11.1849 18.5838 11.2508 18.7498 11.2508C18.9158 11.2508 19.075 11.1849 19.1923 11.0675C19.3097 10.9502 19.3756 10.791 19.3756 10.625C19.3756 10.459 19.3097 10.2999 19.1923 10.1825L16.2498 7.24127V3.12502C16.2498 2.95926 16.184 2.80028 16.0668 2.68307C15.9495 2.56586 15.7906 2.50002 15.6248 2.50002H14.3748C14.2091 2.50002 14.0501 2.56586 13.9329 2.68307C13.8157 2.80028 13.7498 2.95926 13.7498 3.12502V4.74127L10.8836 1.87502Z" fill="#2E396E"/>
<path d="M10 4.11621L17.5 11.6162V16.875C17.5 17.3722 17.3025 17.8492 16.9508 18.2008C16.5992 18.5524 16.1223 18.75 15.625 18.75H4.375C3.87772 18.75 3.40081 18.5524 3.04917 18.2008C2.69754 17.8492 2.5 17.3722 2.5 16.875V11.6162L10 4.11621Z" fill="#2E396E"/>
</svg>
