<svg width="190" height="51" viewBox="0 0 190 51" fill="none" xmlns="http://www.w3.org/2000/svg">
<path fill-rule="evenodd" clip-rule="evenodd" d="M171.638 0.321697C170.36 0.795984 170.303 1.18234 171.231 3.09193C173.509 7.78417 180.729 8.67057 183.508 4.59916C185.164 2.17266 185.156 0.754239 183.483 0.095211C182.623 -0.244073 181.823 0.328802 181.202 1.72768C179.527 5.49889 176.159 5.51932 174.179 1.76943C173.467 0.421173 172.64 -0.0504502 171.638 0.321697ZM142.832 9.32072C139.652 10.0197 136.341 12.0705 136.341 13.3415C136.341 15.7236 138.338 16.3276 140.484 14.5956C145.988 10.1521 151.932 13.8726 152.604 22.1798L153 27.0719H146.834C141.246 27.0719 140.668 27.2379 140.668 28.8482C140.668 30.4585 141.246 30.6246 146.847 30.6246H153.025L152.551 35.9856C152.023 41.9631 150.325 45.2928 147.016 46.8409C145.148 47.714 144.245 47.5648 141.27 45.8924C138.063 44.0902 137.616 44.0361 136.391 45.3026C135.169 46.5656 135.246 46.8578 137.206 48.4112C142.137 52.3183 149.532 51.7339 153.476 47.1243C156.955 43.0582 158.297 36.7095 157.789 26.7343C157.364 18.4023 156.16 14.6631 152.936 11.67C150.734 9.62359 146.223 8.57465 142.832 9.32072ZM14.0418 9.97442C13.8384 10.3403 13.2014 12.1398 12.6259 13.9712C11.6237 17.1598 11.4151 17.3019 7.73082 17.3019C4.39531 17.3019 3.76871 17.6056 3.03739 19.5801C1.82141 22.8628 1.86555 22.9116 5.50051 22.3157C8.37733 21.8431 9.38473 22.2029 13.2638 25.0886C15.7156 26.912 17.7322 28.6226 17.7469 28.89C17.7607 29.1573 15.1427 29.2159 11.9301 29.0196C6.65764 28.6972 5.88305 28.3988 3.97988 25.9616L1.87161 23.2616L0.719669 26.6775C-0.245328 29.5392 -0.241866 30.2027 0.742171 30.7676C1.38781 31.1388 2.81843 32.1913 3.92017 33.107C5.72986 34.6107 5.82766 35.0575 4.92411 37.7158C4.37454 39.3349 3.92449 41.1211 3.92449 41.6842C3.92449 42.2482 6.26558 44.4038 9.12682 46.4741L14.3291 50.24L17.373 47.857L20.4168 45.4749L23.5715 47.7788C26.6196 50.0046 26.8109 50.0322 29.1736 48.5995C30.5186 47.7842 31.6186 46.9031 31.6169 46.642C31.616 46.3809 30.1828 45.3683 28.4319 44.3913C25.9567 43.0102 24.9138 41.6282 23.7411 38.1741C21.4493 31.423 21.7194 31.1601 26.8594 35.1436C29.9136 37.5097 31.6411 39.5099 31.68 40.7232C31.7138 41.7641 32.0193 43.3397 32.3594 44.2252C32.9462 45.7511 33.0985 45.7378 35.2804 43.9766C37.5341 42.1576 37.5566 42.0412 36.3319 38.4805C35.6439 36.4794 35.0813 34.7253 35.0813 34.5823C35.0813 34.4393 36.4444 33.4579 38.1105 32.4009C41.4477 30.2844 41.5377 30.0384 40.2447 26.5487L39.3498 24.1329L36.9516 26.4901C34.8277 28.5782 33.8679 28.8482 28.554 28.8482H22.5545L27.3034 25.3017C32.0132 21.7836 32.7913 21.6247 37.824 23.1541C39.0971 23.5413 39.1585 23.2243 38.3407 20.4905C37.4761 17.5977 37.1446 17.3703 33.4343 17.1234C29.6038 16.8676 29.4082 16.7175 28.1844 13.083C27.0359 9.67422 26.6378 9.30829 24.0734 9.30829C20.9327 9.30829 20.6808 9.81632 22.5597 12.3645C23.2582 13.3131 23.8302 14.8763 23.8302 15.8391C23.8302 18.0497 21.0876 27.0719 20.416 27.0719C20.1399 27.0719 19.1957 24.4961 18.3172 21.3484C16.7274 15.6534 16.7291 15.6117 18.544 12.996C19.547 11.5492 20.3684 10.1281 20.3684 9.83764C20.3684 9.06226 14.478 9.19016 14.0418 9.97442ZM54.1857 28.6262C51.1608 38.7629 48.4917 47.7868 48.2555 48.6812C47.9006 50.0215 48.2581 50.2551 50.298 50.0135C52.5456 49.7471 52.9212 49.1768 54.4358 43.7252L56.1009 37.73H61.9108H67.7207L69.3859 43.7252C70.8745 49.0809 71.3029 49.7506 73.4051 50.0011C74.776 50.1654 75.7583 49.8501 75.7583 49.2479C75.7583 48.6786 73.1567 39.6591 69.977 29.2044C64.3895 10.8368 64.1186 10.1965 61.9402 10.1965C59.761 10.1965 59.504 10.8075 54.1857 28.6262ZM88.3084 20.5802C86.5723 26.3489 84.0123 34.7706 82.6189 39.295C79.5162 49.3714 79.4867 50.1645 82.2155 50.1645C84.6207 50.1645 84.4242 50.6965 90.0498 28.9957C91.8646 21.9933 93.6094 16.7974 93.9262 17.4493C94.243 18.1013 96.3815 25.7289 98.6785 34.3993C102.854 50.1609 102.856 50.1645 105.335 50.1645C108.306 50.1645 108.656 52.1194 101.414 28.3384C96.295 11.5323 95.909 10.6263 93.7444 10.3661C91.5436 10.1005 91.3566 10.4523 88.3084 20.5802ZM106.05 11.9728C106.05 13.5511 106.627 13.7492 111.224 13.7492H116.4L116.633 31.7348L116.868 49.7204H118.868H120.868L121.032 31.9568L121.195 14.1933L126.38 13.7492C130.422 13.4028 131.629 12.9623 131.854 11.7508C132.117 10.3261 131.052 10.1965 119.095 10.1965C106.627 10.1965 106.05 10.2746 106.05 11.9728ZM165.767 30.2391V50.2826L168.027 50.0011C170.035 49.7515 171.115 47.9378 177.763 33.6462L185.24 17.5719L185.475 33.8682L185.711 50.1645H187.855H190V30.1805V10.1965H187.356C184.789 10.1965 184.493 10.6574 177.187 25.9821L169.662 41.7668L169.948 25.9821L170.234 10.1965H168.001H165.767V30.2391ZM64.3099 24.632C65.3909 29.1493 66.2676 33.1443 66.2572 33.5112C66.2468 33.878 64.2467 34.1773 61.813 34.1773C57.4606 34.1773 57.3939 34.1364 57.8042 31.7348C58.5701 27.2442 61.4729 16.4199 61.9108 16.4199C62.1488 16.419 63.2281 20.1148 64.3099 24.632ZM17.4327 37.6501C15.7849 42.321 14.9644 43.4881 12.6155 44.5024C8.92776 46.0931 9.1173 46.1952 9.1173 42.6061C9.1173 40.7258 9.71793 38.9726 10.6319 38.1874C13.3313 35.8666 19.0529 31.6433 19.2389 31.8343C19.3385 31.9355 18.5258 34.553 17.4327 37.6501Z" fill="#2E396E"/>
</svg>
