<svg width="66" height="65" viewBox="0 0 66 65" fill="none" xmlns="http://www.w3.org/2000/svg">
<path d="M53.625 63.9688H12.375C9.53184 63.9688 7.21875 61.6557 7.21875 58.8125V5.1875C7.21875 2.34434 9.53184 0.03125 12.375 0.03125H33.3542C34.7315 0.03125 36.0267 0.568016 36.9997 1.54152L57.271 21.8128C58.245 22.7868 58.7812 24.081 58.7812 25.4583V58.8125C58.7812 61.6557 56.4682 63.9688 53.625 63.9688ZM12.375 2.09375C10.6688 2.09375 9.28125 3.4813 9.28125 5.1875V58.8125C9.28125 60.5187 10.6688 61.9062 12.375 61.9062H53.625C55.3312 61.9062 56.7188 60.5187 56.7188 58.8125V25.4583C56.7188 24.6441 56.3882 23.8469 55.8128 23.271L35.5415 2.9997C34.9573 2.4155 34.1803 2.09375 33.3542 2.09375H12.375Z" fill="#B3090B"/>
<path d="M49.0926 40.415C49.0565 40.152 48.8451 39.822 48.6182 39.6003C47.9685 38.9609 46.5402 38.6258 44.3643 38.5948C42.8896 38.5794 41.1159 38.7083 39.2493 38.9712C38.414 38.4917 37.5529 37.9658 36.8774 37.3316C35.0573 35.6352 33.5413 33.2788 32.5926 30.6852C32.6545 30.4428 32.706 30.2314 32.7576 30.0148C32.7576 30.0148 33.7785 24.1986 33.5104 22.2289C33.4743 21.9608 33.4485 21.8834 33.3763 21.672L33.2887 21.4452C33.0102 20.8006 32.4637 20.12 31.6077 20.1561L31.1024 20.1406H31.0921C30.133 20.1406 29.3596 20.6305 29.1534 21.3575C28.5346 23.6469 29.174 27.0758 30.3341 31.5102L30.0351 32.232C29.2049 34.2636 28.1634 36.3055 27.2455 38.105L27.127 38.337C26.1576 40.2294 25.281 41.8381 24.4818 43.1994L23.662 43.6325C23.6001 43.6634 22.1924 44.4111 21.8624 44.607C19.0626 46.2828 17.2063 48.1803 16.897 49.6859C16.799 50.1706 16.8712 50.7842 17.3713 51.0678L18.1654 51.47C18.5109 51.6402 18.877 51.7278 19.2482 51.7278C21.2437 51.7278 23.5588 49.2425 26.7505 43.6737C30.4321 42.4775 34.6293 41.4772 38.3057 40.9306C41.1055 42.5033 44.5499 43.6016 46.7259 43.6016C47.1126 43.6016 47.4477 43.5655 47.7159 43.4933C48.1335 43.3798 48.4841 43.1427 48.7007 42.823C49.1235 42.1887 49.206 41.3122 49.0926 40.415ZM18.8151 50.217C19.176 49.2219 20.6198 47.2522 22.7493 45.5094C22.8834 45.4011 23.2134 45.0917 23.5124 44.803C21.2849 48.3556 19.7948 49.7684 18.8151 50.217ZM31.4273 21.1719C32.0666 21.1719 32.4327 22.7858 32.4637 24.3017C32.4946 25.8177 32.1388 26.8798 31.7005 27.6687C31.3345 26.5034 31.1591 24.6678 31.1591 23.4664C31.1591 23.4664 31.1334 21.1719 31.4273 21.1719ZM27.6632 41.8691C28.1118 41.0698 28.5759 40.2242 29.0502 39.3322C30.2104 37.1408 30.9426 35.4289 31.484 34.0212C32.5668 35.9909 33.9177 37.6667 35.5007 39.0073C35.7018 39.1723 35.9132 39.3425 36.1298 39.5127C32.9071 40.1469 30.1176 40.9255 27.6632 41.8691ZM47.9943 41.6886C47.7984 41.8072 47.2363 41.8794 46.8754 41.8794C45.7101 41.8794 44.2612 41.3483 42.2348 40.4769C43.0134 40.4202 43.7301 40.3892 44.3695 40.3892C45.5399 40.3892 45.8854 40.3841 47.0352 40.678C48.1799 40.9719 48.1954 41.5648 47.9943 41.6886Z" fill="#B3090B"/>
</svg>
