<svg width="80" height="80" viewBox="0 0 80 80" fill="none" xmlns="http://www.w3.org/2000/svg">
<path d="M38.3931 38.4597C32.6561 44.1967 32.6561 53.4983 38.3931 59.2353C41.0386 61.8808 44.433 63.2938 47.8912 63.5116C50.202 63.6497 52.5446 63.2407 54.7119 62.2792C55.0466 62.1305 55.3759 61.971 55.6947 61.8011V62.5395C55.6947 64.4731 54.1223 66.0455 52.1887 66.0455H10.1115C8.17791 66.0455 6.60547 64.4731 6.60547 62.5395V10.1727C6.60547 8.23912 8.17784 6.66675 10.1115 6.66675H52.1887C54.1223 6.66675 55.6947 8.23912 55.6947 10.1727V35.8887C53.2776 34.5978 50.5738 34.0347 47.9071 34.1835C44.4435 34.3853 41.0438 35.809 38.3931 38.4597Z" stroke="black" stroke-linecap="round" stroke-linejoin="round"/>
<path d="M51.8126 14.3399V19.3917C51.8126 20.3957 50.9999 21.2085 49.9905 21.2085H12.3011C11.2971 21.2085 10.4844 20.3957 10.4844 19.3917V14.3399C10.4844 13.3359 11.2971 12.5232 12.3011 12.5232H49.9905C50.9999 12.5232 51.8126 13.3359 51.8126 14.3399Z" stroke="black" stroke-linecap="round" stroke-linejoin="round"/>
<path d="M22.9918 48.1544V53.2062C22.9918 54.2102 22.179 55.0229 21.1697 55.0229H12.3011C11.2971 55.0229 10.4844 54.2102 10.4844 53.2062V48.1544C10.4844 47.1504 11.2971 46.3376 12.3011 46.3376H21.1697C22.179 46.3376 22.9918 47.1504 22.9918 48.1544Z" stroke="black" stroke-linecap="round" stroke-linejoin="round"/>
<path d="M35.4444 55.023H26.7113C25.7073 55.023 24.8945 54.2102 24.8945 53.2062V48.1544C24.8945 47.1504 25.7073 46.3376 26.7113 46.3376H34.3076C33.803 49.254 34.1801 52.2926 35.4444 55.023Z" stroke="black" stroke-linecap="round" stroke-linejoin="round"/>
<path d="M10.4844 25.6726H51.8125" stroke="black" stroke-linecap="round" stroke-linejoin="round"/>
<path d="M10.4844 30.8389H51.8125" stroke="black" stroke-linecap="round" stroke-linejoin="round"/>
<path d="M10.4844 36.0051H41.6356" stroke="black" stroke-linecap="round" stroke-linejoin="round"/>
<path d="M10.4844 41.1714H36.0213" stroke="black" stroke-linecap="round" stroke-linejoin="round"/>
<path d="M10.4844 60.1892H39.3051" stroke="black" stroke-linecap="round" stroke-linejoin="round"/>
<path d="M60.565 57.5999L63.1522 60.187L60.2739 63.0653L57.7109 60.4943C58.2203 60.1143 58.7013 59.6899 59.1662 59.225C59.6797 58.7116 60.1486 58.1699 60.565 57.5999Z" stroke="black" stroke-linecap="round" stroke-linejoin="round"/>
<path d="M62.2055 54.7785C61.908 55.4637 61.5521 56.1384 61.1378 56.7812C60.9519 57.0574 60.766 57.3336 60.5641 57.5992C60.1498 58.1676 59.6823 58.7094 59.167 59.2247C58.6995 59.6922 58.2215 60.1118 57.7115 60.4943C57.3875 60.7546 57.0528 60.983 56.7075 61.2061C56.3782 61.4186 56.0382 61.6152 55.6929 61.8011C55.3741 61.9711 55.0448 62.1304 54.7101 62.2792C52.5428 63.2406 50.2001 63.6497 47.8894 63.5116C44.4312 63.2938 41.0368 61.8808 38.3913 59.2353C37.1323 57.9763 36.1496 56.5474 35.4431 55.0228C34.1788 52.2924 33.8017 49.2538 34.3063 46.3375C34.8003 43.4531 36.1656 40.6854 38.3913 38.4597C41.042 35.8089 44.4418 34.3853 47.9053 34.1834C50.572 34.0347 53.2758 34.5977 55.6929 35.8886C56.9412 36.5526 58.1152 37.4132 59.167 38.465C63.5655 42.8794 64.5906 49.392 62.2055 54.7785Z" stroke="black" stroke-linecap="round" stroke-linejoin="round"/>
<path d="M48.7638 60.3506C48.5351 60.3506 48.3063 60.3439 48.078 60.3301C45.2695 60.1534 42.6259 58.9639 40.6432 56.9817C39.6772 56.0158 38.9001 54.9056 38.3331 53.6827C37.35 51.5594 37.0429 49.207 37.4455 46.8812C37.847 44.5353 38.9525 42.4045 40.6436 40.7134C42.6388 38.718 45.2834 37.5287 48.0889 37.3653C48.3 37.3536 48.5195 37.3474 48.7394 37.3474C50.6484 37.3474 52.5331 37.815 54.1895 38.7001C55.188 39.231 56.1021 39.9096 56.9119 40.7191C60.288 44.1074 61.2233 49.1212 59.2894 53.4881C59.0476 54.0456 58.7758 54.557 58.4729 55.0301C58.3276 55.2464 58.1823 55.4633 58.0246 55.6711L57.9873 55.7212C57.676 56.1479 57.314 56.5686 56.9109 56.9716C56.541 57.342 56.1763 57.6603 55.7976 57.9441L55.712 58.011C55.5226 58.1632 55.3021 58.3183 54.9753 58.5297C54.7413 58.6804 54.4804 58.8332 54.1806 58.9947C53.9513 59.1169 53.6893 59.2443 53.4128 59.3672C51.9433 60.0193 50.3782 60.3506 48.7638 60.3506Z" stroke="black" stroke-linecap="round" stroke-linejoin="round"/>
<path d="M64.8339 59.4811L72.23 66.8772C73.6718 68.319 73.8142 70.6886 72.412 72.169C70.9629 73.699 68.5496 73.7189 67.074 72.2432L59.5729 64.742C59.3038 64.473 59.3038 64.0369 59.5729 63.7678L63.8596 59.4811C64.1287 59.212 64.5649 59.212 64.8339 59.4811Z" stroke="black" stroke-linecap="round" stroke-linejoin="round"/>
</svg>
