<svg width="68" height="68" viewBox="0 0 68 68" fill="none" xmlns="http://www.w3.org/2000/svg">
<g clip-path="url(#clip0_93_3418)">
<path d="M60.0935 35.2C58.5297 35.2 57.0009 35.6691 55.7006 36.5482C54.4003 37.4272 53.3869 38.6767 52.7884 40.1385C52.19 41.6003 52.0334 43.2088 52.3385 44.7607C52.6435 46.3125 53.3966 47.738 54.5024 48.8568C55.6082 49.9756 57.0171 50.7376 58.5509 51.0462C60.0847 51.3549 61.6746 51.1965 63.1194 50.591C64.5642 49.9855 65.7991 48.9601 66.6679 47.6445C67.5367 46.3289 68.0005 44.7822 68.0005 43.2C68.0005 41.0782 67.1674 39.0434 65.6846 37.5431C64.2017 36.0428 62.1906 35.2 60.0935 35.2ZM60.0935 48.8C58.9988 48.8 57.9287 48.4715 57.0185 47.8562C56.1083 47.2408 55.3989 46.3662 54.9799 45.343C54.561 44.3197 54.4514 43.1937 54.665 42.1074C54.8785 41.0212 55.4057 40.0233 56.1798 39.2402C56.9538 38.457 57.94 37.9236 59.0137 37.7076C60.0874 37.4915 61.2002 37.6024 62.2116 38.0262C63.223 38.4501 64.0874 39.1678 64.6956 40.0888C65.3038 41.0097 65.6284 42.0924 65.6284 43.2C65.6284 44.6852 65.0452 46.1095 64.0073 47.1597C62.9693 48.21 61.5614 48.8 60.0935 48.8Z" fill="#2E396E"/>
<path d="M43.488 16C45.0519 16 46.5806 15.5308 47.8809 14.6518C49.1812 13.7727 50.1947 12.5233 50.7931 11.0615C51.3916 9.59966 51.5482 7.99113 51.2431 6.43928C50.938 4.88743 50.1849 3.46197 49.0791 2.34315C47.9733 1.22433 46.5644 0.462403 45.0306 0.153721C43.4968 -0.15496 41.907 0.00346627 40.4622 0.608967C39.0174 1.21447 37.7824 2.23985 36.9136 3.55544C36.0448 4.87103 35.5811 6.41775 35.5811 8C35.5811 10.1217 36.4141 12.1566 37.897 13.6569C39.3798 15.1571 41.391 16 43.488 16ZM43.488 2.4C44.5827 2.4 45.6528 2.72844 46.563 3.34377C47.4733 3.95911 48.1827 4.83371 48.6016 5.85698C49.0205 6.88024 49.1301 8.00622 48.9166 9.09251C48.703 10.1788 48.1759 11.1766 47.4018 11.9598C46.6277 12.743 45.6415 13.2763 44.5678 13.4924C43.4942 13.7085 42.3813 13.5976 41.3699 13.1737C40.3586 12.7499 39.4941 12.0321 38.8859 11.1112C38.2778 10.1903 37.9531 9.10758 37.9531 8C37.9531 6.51479 38.5363 5.09041 39.5743 4.04021C40.6123 2.99 42.0201 2.4 43.488 2.4Z" fill="#2E396E"/>
<path d="M24.5115 52C22.9476 52 21.4189 52.4692 20.1186 53.3482C18.8183 54.2273 17.8048 55.4767 17.2064 56.9385C16.6079 58.4003 16.4513 60.0089 16.7564 61.5607C17.0615 63.1126 17.8146 64.538 18.9204 65.6569C20.0262 66.7757 21.4351 67.5376 22.9689 67.8463C24.5027 68.155 26.0925 67.9965 27.5373 67.391C28.9822 66.7855 30.2171 65.7602 31.0859 64.4446C31.9547 63.129 32.4185 61.5822 32.4185 60C32.4185 58.9494 32.2139 57.9091 31.8166 56.9385C31.4192 55.9679 30.8368 55.086 30.1026 54.3431C29.3683 53.6003 28.4967 53.011 27.5373 52.609C26.578 52.2069 25.5498 52 24.5115 52ZM24.5115 65.6C23.4168 65.6 22.3467 65.2716 21.4365 64.6562C20.5262 64.0409 19.8168 63.1663 19.3979 62.143C18.979 61.1198 18.8694 59.9938 19.0829 58.9075C19.2965 57.8212 19.8237 56.8234 20.5977 56.0402C21.3718 55.257 22.358 54.7237 23.4317 54.5076C24.5053 54.2915 25.6182 54.4024 26.6296 54.8263C27.6409 55.2501 28.5054 55.9679 29.1136 56.8888C29.7217 57.8097 30.0464 58.8924 30.0464 60C30.0464 61.4852 29.4632 62.9096 28.4252 63.9598C27.3872 65.01 25.9794 65.6 24.5115 65.6Z" fill="#2E396E"/>
<path d="M15.814 24C15.814 22.4178 15.3502 20.871 14.4814 19.5554C13.6126 18.2398 12.3777 17.2145 10.9328 16.609C9.48804 16.0035 7.89821 15.845 6.36441 16.1537C4.8306 16.4624 3.42171 17.2243 2.3159 18.3431C1.21009 19.462 0.457026 20.8874 0.151934 22.4393C-0.153159 23.9911 0.00342597 25.5997 0.601886 27.0615C1.20035 28.5233 2.2138 29.7727 3.5141 30.6518C4.81439 31.5308 6.34313 32 7.90698 32C10.004 32 12.0152 31.1571 13.4981 29.6569C14.9809 28.1566 15.814 26.1217 15.814 24ZM2.3721 24C2.3721 22.8924 2.69671 21.8097 3.30489 20.8888C3.91307 19.9679 4.7775 19.2501 5.78887 18.8263C6.80024 18.4024 7.91312 18.2915 8.98678 18.5076C10.0604 18.7237 11.0467 19.257 11.8207 20.0402C12.5948 20.8234 13.1219 21.8212 13.3355 22.9075C13.5491 23.9938 13.4395 25.1198 13.0205 26.143C12.6016 27.1663 11.8922 28.0409 10.982 28.6562C10.0718 29.2716 9.00168 29.6 7.90698 29.6C6.43904 29.6 5.03122 29.01 3.99323 27.9598C2.95523 26.9096 2.3721 25.4852 2.3721 24Z" fill="#2E396E"/>
<path d="M45.0702 33.5999C45.0702 31.3848 44.421 29.2193 43.2046 27.3775C41.9883 25.5357 40.2594 24.1002 38.2367 23.2525C36.2139 22.4048 33.9882 22.183 31.8408 22.6151C29.6935 23.0473 27.7211 24.114 26.1729 25.6803C24.6248 27.2467 23.5705 29.2423 23.1434 31.4149C22.7162 33.5875 22.9355 35.8394 23.7733 37.886C24.6111 39.9325 26.03 41.6817 27.8504 42.9124C29.6708 44.143 31.811 44.7999 34.0004 44.7999C36.9363 44.7999 39.752 43.6199 41.8279 41.5195C43.9039 39.4191 45.0702 36.5703 45.0702 33.5999ZM34.0004 42.3999C32.2802 42.3999 30.5986 41.8838 29.1683 40.9168C27.7379 39.9499 26.6231 38.5755 25.9648 36.9675C25.3065 35.3595 25.1343 33.5901 25.4699 31.8831C25.8055 30.1761 26.6339 28.6081 27.8503 27.3774C29.0666 26.1467 30.6164 25.3085 32.3036 24.969C33.9908 24.6294 35.7396 24.8037 37.3289 25.4698C38.9182 26.1358 40.2766 27.2637 41.2323 28.7109C42.188 30.158 42.6981 31.8594 42.6981 33.5999C42.6981 35.9338 41.7818 38.1721 40.1506 39.8224C38.5195 41.4728 36.3072 42.3999 34.0004 42.3999Z" fill="#2E396E"/>
<path d="M37.0366 29.2401C36.9201 29.3443 36.8252 29.471 36.7576 29.6127C36.69 29.7545 36.6511 29.9084 36.643 30.0656C36.6349 30.2228 36.6578 30.38 36.7105 30.5281C36.7631 30.6762 36.8445 30.8121 36.9497 30.9281C37.4086 31.4449 37.7266 32.0739 37.8723 32.7529C38.0179 33.4319 37.9863 34.1376 37.7804 34.8005C37.5745 35.4634 37.2015 36.0606 36.6981 36.5332C36.1947 37.0059 35.5784 37.3377 34.9097 37.4961C34.613 37.5772 34.3591 37.7717 34.2013 38.0386C34.0436 38.3054 33.9944 38.6238 34.0641 38.9266C34.1338 39.2295 34.317 39.4931 34.575 39.662C34.833 39.8309 35.1458 39.8919 35.4473 39.8321C36.8359 39.502 38.0734 38.7067 38.959 37.5754C39.8446 36.4441 40.3263 35.0432 40.3259 33.6001C40.3259 31.2001 38.5627 27.8481 37.0366 29.2401Z" fill="#2E396E"/>
<path d="M34.0002 27.2C31.6993 27.2 28.3783 28.904 29.7304 30.472C29.9375 30.7098 30.2292 30.855 30.5418 30.876C30.8544 30.897 31.1625 30.792 31.3988 30.584C32.1198 29.9484 33.044 29.5989 34.0002 29.6C34.3148 29.6 34.6164 29.4735 34.8389 29.2485C35.0613 29.0234 35.1862 28.7182 35.1862 28.4C35.1862 28.0817 35.0613 27.7765 34.8389 27.5514C34.6164 27.3264 34.3148 27.2 34.0002 27.2Z" fill="#2E396E"/>
<path d="M52.8029 4.6481C72.7443 -0.311898 61.9671 28.6001 37.321 49.6001C37.0799 49.8059 36.9294 50.1002 36.9027 50.4183C36.876 50.7363 36.9753 51.0521 37.1787 51.2961C37.3821 51.5401 37.673 51.6923 37.9874 51.7194C38.3017 51.7464 38.6138 51.6459 38.855 51.4401C68.5852 26.0961 73.8196 -3.0559 52.2415 2.3121C51.9353 2.38742 51.6713 2.58272 51.5074 2.85502C51.3436 3.12732 51.2933 3.45433 51.3678 3.7641C51.4422 4.07387 51.6353 4.34104 51.9044 4.50682C52.1735 4.6726 52.4967 4.72342 52.8029 4.6481Z" fill="#2E396E"/>
<path d="M14.9043 62.6239C-4.68132 67.1999 6.26193 38.3999 30.6787 17.5999C30.9198 17.3941 31.0703 17.0998 31.097 16.7817C31.1237 16.4637 31.0244 16.1479 30.821 15.9039C30.6176 15.6599 30.3267 15.5076 30.0123 15.4806C29.698 15.4536 29.3859 15.5541 29.1447 15.7599C3.21775 37.8639 -5.79621 65.5039 11.1722 65.5039C12.6088 65.4902 14.039 65.3077 15.434 64.9599C15.5926 64.9318 15.7439 64.8714 15.8786 64.7823C16.0134 64.6932 16.1288 64.5772 16.2178 64.4415C16.3069 64.3058 16.3677 64.1532 16.3965 63.993C16.4254 63.8327 16.4217 63.6682 16.3857 63.5095C16.3497 63.3507 16.2821 63.201 16.1871 63.0695C16.0921 62.9381 15.9716 62.8275 15.833 62.7447C15.6944 62.6618 15.5406 62.6084 15.3809 62.5876C15.2212 62.5669 15.0591 62.5792 14.9043 62.6239Z" fill="#2E396E"/>
<path d="M5.17148 13.6001C4.67334 11.0721 4.48357 7.65608 6.4366 5.68008C12.1612 -0.0799147 33.0278 10.0721 49.8143 30.2561C50.0177 30.499 50.3082 30.6503 50.6218 30.6765C50.9354 30.7028 51.2465 30.6019 51.4866 30.3961C51.7267 30.1903 51.8762 29.8964 51.9021 29.5791C51.9281 29.2618 51.8284 28.947 51.625 28.7041C49.7194 26.4081 47.6715 24.1361 45.4892 21.9521C21.3492 -2.49591 -0.790379 -4.25592 2.84683 14.1041C2.91289 14.416 3.0987 14.6885 3.36339 14.8618C3.62807 15.0351 3.94996 15.0949 4.25823 15.0281C4.56649 14.9613 4.83589 14.7733 5.00716 14.5055C5.17843 14.2376 5.23754 13.912 5.17148 13.6001Z" fill="#2E396E"/>
<path d="M62.8444 53.664C66.4974 72.504 38.4197 61.272 18.1858 36.96C17.9824 36.716 17.6915 36.5638 17.3771 36.5368C17.0628 36.5098 16.7507 36.6102 16.5095 36.816C16.2684 37.0219 16.1179 37.3162 16.0912 37.6342C16.0645 37.9523 16.1638 38.268 16.3672 38.512C18.2807 40.8 20.3207 43.064 22.4951 45.248C47.3863 70.44 68.6244 70.96 65.1928 53.2C65.132 52.885 64.9499 52.6072 64.6867 52.428C64.4235 52.2487 64.1007 52.1825 63.7893 52.244C63.4779 52.3056 63.2034 52.4897 63.0262 52.756C62.849 53.0223 62.7836 53.349 62.8444 53.664Z" fill="#2E396E"/>
</g>
<defs>
<clipPath id="clip0_93_3418">
<rect width="68" height="68" fill="white"/>
</clipPath>
</defs>
</svg>
