<svg width="80" height="80" viewBox="0 0 80 80" fill="none" xmlns="http://www.w3.org/2000/svg">
<path d="M0 6.01587V13.0471H2.34374V8.35961H77.6563V52.8905H2.34374V15.3908H0V56.4063C0 58.3447 1.57718 59.9218 3.51561 59.9218H35.2272C34.6566 63.8916 31.2344 66.953 27.1091 66.953H21.2499C19.3115 66.953 17.7343 68.53 17.7343 70.4684V73.984H52.8907V71.6403H20.078V70.4684C20.078 69.8223 20.6037 69.2967 21.2499 69.2967H58.7501C59.3963 69.2967 59.922 69.8223 59.922 70.4684V71.6403H55.2345V73.984H62.2657V70.4684C62.2657 68.53 60.6885 66.953 58.7501 66.953H52.8909C48.7657 66.953 45.3434 63.8916 44.7728 59.9218H76.4844C78.4228 59.9218 80 58.3447 80 56.4063V6.01587H0H0ZM46.272 66.953H33.728C35.835 65.2495 37.2747 62.7535 37.5892 59.9218H42.4106C42.7253 62.7535 44.165 65.2495 46.272 66.953ZM76.4844 57.578H3.51561C2.86936 57.578 2.34374 57.0524 2.34374 56.4063V55.2343H77.6563V56.4063C77.6563 57.0524 77.1306 57.578 76.4844 57.578Z" fill="#2E396E"/>
<path d="M72.9688 15.3909H75.3125V17.7346H72.9688V15.3909Z" fill="#2E396E"/>
<path d="M72.9688 10.7034H75.3125V13.0471H72.9688V10.7034Z" fill="#2E396E"/>
<path d="M33.4883 23.594H49.8945V25.9377H33.4883V23.594Z" fill="#2E396E"/>
<path d="M33.4883 18.9065H49.8945V21.2502H33.4883V18.9065Z" fill="#2E396E"/>
<path d="M32.7836 33.4959L35.2052 30.6252H49.8948V28.2815H34.1159L30.9922 31.9846L32.7836 33.4959Z" fill="#2E396E"/>
<path d="M14.8711 35.3124C12.9327 35.3124 11.3555 36.8896 11.3555 38.8281C11.3555 40.7665 12.9327 42.3437 14.8711 42.3437C16.8095 42.3437 18.3867 40.7665 18.3867 38.8281C18.3867 38.286 18.2633 37.7723 18.0431 37.3132L20.3875 34.9688C20.8464 35.1888 21.3602 35.3123 21.9022 35.3123C22.4442 35.3123 22.958 35.1888 23.4169 34.9688L25.7612 37.3132C25.5413 37.7721 25.4177 38.2859 25.4177 38.8281C25.4177 40.7665 26.9948 42.3437 28.9334 42.3437C30.4611 42.3437 31.7637 41.3638 32.2475 39.9999H34.9942C35.478 41.3638 36.7806 42.3437 38.3083 42.3437C40.2467 42.3437 41.8239 40.7665 41.8239 38.8281C41.8239 36.8896 40.2467 35.3124 38.3083 35.3124C36.7806 35.3124 35.478 36.2923 34.9942 37.6562H32.2475C31.7637 36.2923 30.4611 35.3124 28.9334 35.3124C28.3914 35.3124 27.8777 35.4359 27.4186 35.656L25.0742 33.3117C25.2942 32.8527 25.4178 32.339 25.4178 31.797C25.4178 30.2693 24.438 28.9667 23.0741 28.4829V25.736C24.438 25.2523 25.4178 23.9496 25.4178 22.422C25.4178 20.4835 23.8406 18.9065 21.9022 18.9065C19.9637 18.9065 18.3866 20.4835 18.3866 22.422C18.3866 23.9496 19.3664 25.2523 20.7303 25.736V28.4829C19.3664 28.9667 18.3866 30.2693 18.3866 31.797C18.3866 32.339 18.51 32.8527 18.7302 33.3117L16.3858 35.656C15.9267 35.4359 15.4131 35.3124 14.8711 35.3124ZM14.8711 39.9999C14.2248 39.9999 13.6992 39.4743 13.6992 38.8281C13.6992 38.1818 14.2248 37.6562 14.8711 37.6562C15.5173 37.6562 16.043 38.1818 16.043 38.8281C16.043 39.4743 15.5172 39.9999 14.8711 39.9999ZM38.3083 37.6562C38.9545 37.6562 39.4802 38.1818 39.4802 38.8281C39.4802 39.4743 38.9545 39.9999 38.3083 39.9999C37.662 39.9999 37.1364 39.4743 37.1364 38.8281C37.1364 38.1818 37.662 37.6562 38.3083 37.6562ZM28.9334 37.6562C29.5797 37.6562 30.1053 38.1818 30.1053 38.8281C30.1053 39.4743 29.5797 39.9999 28.9334 39.9999C28.2872 39.9999 27.7614 39.4743 27.7614 38.8281C27.7614 38.1818 28.2872 37.6562 28.9334 37.6562ZM21.9022 21.2502C22.5484 21.2502 23.0741 21.7759 23.0741 22.422C23.0741 23.0682 22.5484 23.5938 21.9022 23.5938C21.2559 23.5938 20.7303 23.0682 20.7303 22.422C20.7303 21.7759 21.2559 21.2502 21.9022 21.2502ZM21.9022 30.6251C22.5484 30.6251 23.0741 31.1507 23.0741 31.797C23.0741 32.4431 22.5484 32.9687 21.9022 32.9687C21.2559 32.9687 20.7303 32.4431 20.7303 31.797C20.7303 31.1507 21.2559 30.6251 21.9022 30.6251Z" fill="#2E396E"/>
<path d="M60.4414 42.3437C63.0261 42.3437 65.1287 40.2409 65.1287 37.6562V21.2502H67.4725V18.9065H53.4102V21.2502H55.7539V37.6562C55.7539 40.2409 57.8567 42.3437 60.4414 42.3437ZM60.4414 39.9999C59.1491 39.9999 58.0977 38.9485 58.0977 37.6562V25.9376H62.785V37.6562C62.785 38.9484 61.7338 39.9999 60.4414 39.9999ZM62.785 21.2502V23.5938H58.0977V21.2502H62.785Z" fill="#2E396E"/>
</svg>
