<svg width="68" height="68" viewBox="0 0 68 68" fill="none" xmlns="http://www.w3.org/2000/svg">
<g clip-path="url(#clip0_93_3412)">
<path d="M59.8982 60.0307H51.9439V53.3713C56.9258 49.8017 59.8837 44.0909 59.8837 37.9839C59.8836 33.6336 58.3691 29.4149 55.609 26.038C55.7997 25.3975 55.8991 24.7257 55.8991 24.0387C55.8991 20.194 52.7711 17.066 48.9264 17.066C46.9199 17.066 45.1096 17.9192 43.8364 19.2805C42.8848 19.1338 41.9192 19.0583 40.9578 19.0583H38.9798V15.074L33.0032 15.0741V19.0583H31.0111V10.5441L29.0189 8.55195V5.80486C30.1782 5.39367 31.0111 4.28641 31.0111 2.9879C31.0111 1.34023 29.6706 -0.000244141 28.0228 -0.000244141H20.054C18.4064 -0.000244141 17.0657 1.34037 17.0657 2.98804C17.0657 4.28654 17.8986 5.3938 19.0579 5.80499V8.55208L17.0657 10.5443V15.9371H19.0579V11.3693L20.4668 9.96083L27.6104 9.96069L29.019 11.3693V19.2298C27.8597 19.641 27.0269 20.7483 27.0269 22.0468C27.0269 23.3453 27.8597 24.4525 29.0191 24.8637V29.2186H19.0583L19.0582 17.9294H17.066L17.0663 34.1991C17.0663 35.5549 17.9742 36.702 19.2136 37.0661L20.234 42.1679L27.8437 42.1677L28.864 37.066C30.1035 36.7018 31.0115 35.5549 31.0115 34.1991L31.0113 25.035H33.0035V29.0193H38.9801L38.9799 25.035H40.9578C41.3143 25.035 41.6734 25.052 42.0321 25.0822C42.5373 28.4338 45.4364 31.0115 48.9265 31.0115C49.8262 31.0115 50.6992 30.8407 51.5104 30.5173C53.0593 32.6979 53.9071 35.3195 53.9071 37.984C53.9071 41.7512 52.2105 45.3746 49.3323 47.8328C48.1371 46.8718 46.6206 46.295 44.9712 46.295C41.945 46.295 39.364 48.2334 38.4018 50.9335H35.0104L35.0103 46.9491H13.0674V50.9335H9.08305V53.9218C9.08305 54.72 9.39383 55.4704 9.95828 56.0348C10.5227 56.5993 11.2731 56.91 12.0713 56.9099L37.9986 56.9098V60.0309L8.10143 60.0311C6.77583 60.0311 5.52633 60.5504 4.58336 61.4935C3.64039 62.4365 3.12096 63.6861 3.12109 65.0116V67.9999H4.11719L56.91 67.9996V66.0074L5.11328 66.0077V65.0116C5.11328 64.2181 5.42539 63.469 5.9921 62.9021C6.55895 62.3356 7.30801 62.0233 8.10143 62.0233L59.8982 62.0229C61.5458 62.0229 62.8865 63.3635 62.8865 65.0112V66.0073L58.9022 66.0074V67.9996L64.8786 67.9995V65.0112C64.8786 62.2649 62.6445 60.0307 59.8982 60.0307ZM34.9957 17.0664L36.9878 17.0663V19.0585H34.9957V17.0664ZM27.0269 5.97632V7.96851H21.0504V5.97632H27.0269ZM20.0543 1.99208H28.023C28.5722 1.99208 29.0191 2.43886 29.0191 2.98804C29.0191 3.53735 28.5722 3.98413 28.023 3.98413L20.0543 3.98426C19.5051 3.98426 19.0582 3.53748 19.0582 2.98817C19.0582 2.43886 19.505 1.99208 20.0543 1.99208ZM21.8672 40.1757L21.2695 37.1874L26.8082 37.1873L26.2105 40.1755L21.8672 40.1757ZM28.0232 35.1951L20.0544 35.1952C19.5052 35.1952 19.0583 34.7484 19.0583 34.1991V31.2108H29.0191V34.1991C29.0193 34.7483 28.5725 35.1951 28.0232 35.1951ZM36.9879 27.0271H34.9957V25.035H36.9878L36.9879 27.0271ZM30.0152 23.0429C29.466 23.0429 29.0191 22.5961 29.0191 22.0468C29.0191 21.4975 29.4659 21.0507 30.0152 21.0507H40.9579C41.5023 21.0507 42.0483 21.078 42.5916 21.1309C42.3113 21.7393 42.116 22.3943 42.0212 23.0814C41.6662 23.0557 41.3109 23.0427 40.9579 23.0427H30.0152V23.0429ZM43.9461 24.0388C43.9461 21.2925 46.1802 19.0583 48.9265 19.0583C51.6728 19.0583 53.907 21.2925 53.907 24.0388C53.907 25.3692 53.389 26.6199 52.4485 27.5606C51.5077 28.5013 50.257 29.0193 48.9267 29.0193C46.1804 29.0193 43.9462 26.7851 43.9461 24.0388ZM55.8995 37.984C55.8995 34.9682 54.9603 32.0011 53.2409 29.5152C53.4548 29.346 53.6613 29.1651 53.8571 28.9692C54.1473 28.679 54.4068 28.3668 54.6381 28.0379C56.7447 30.9247 57.8915 34.4051 57.8916 37.984C57.8916 43.1019 55.5669 47.9099 51.6056 51.1246C51.3918 50.4644 51.0821 49.8473 50.6928 49.2893C53.9696 46.4562 55.8995 42.3032 55.8995 37.984ZM15.0596 48.9413L33.0182 48.9412V50.9333H15.0596V48.9413ZM12.0712 54.9177C11.8052 54.9177 11.5551 54.8143 11.367 54.6261C11.1788 54.438 11.0752 54.1878 11.0752 53.9218V52.9257L38.0074 52.9255C38.0019 53.039 37.9987 53.1529 37.9987 53.2675V54.9176L12.0712 54.9177ZM39.9908 53.2675C39.9908 50.5212 42.2249 48.2871 44.9712 48.2871C47.7175 48.2871 49.9517 50.5212 49.9517 53.2674V60.0307H39.9908V53.2675Z" fill="#2E396E"/>
<path d="M43.9756 52.2712H45.9678V54.2634H43.9756V52.2712Z" fill="#2E396E"/>
<path d="M25.0352 11.9529H27.0273V13.9451H25.0352V11.9529Z" fill="#2E396E"/>
<path d="M25.0352 15.9373H27.0273V17.9294H25.0352V15.9373Z" fill="#2E396E"/>
</g>
<defs>
<clipPath id="clip0_93_3412">
<rect width="68" height="68" fill="white"/>
</clipPath>
</defs>
</svg>
