<svg width="24" height="22" viewBox="0 0 24 22" fill="none" xmlns="http://www.w3.org/2000/svg">
<path d="M20.501 13.9734C22.3485 15.6737 22.7299 16.4884 22.7894 16.5946C23.5523 17.8462 21.9551 17.9406 21.9551 17.9406L18.8801 17.9879C18.8801 17.9879 18.2126 18.1178 17.3544 17.5274C16.1983 16.7481 15.0899 14.7055 14.2675 14.977C13.4212 15.2486 13.4451 17.0787 13.4451 17.0787C13.4451 17.0787 13.4451 17.3385 13.2544 17.5392C13.0398 17.7635 12.6227 17.6809 12.6227 17.6809H11.252C11.252 17.6809 8.21268 17.9879 5.55477 15.2368C2.63465 12.2378 0.0601778 6.33421 0.0601778 6.33421C0.0601778 6.33421 -0.0828486 5.97999 0.0720966 5.77927C0.25088 5.59036 0.751472 5.59036 0.751472 5.59036H4.04108C4.04108 5.59036 4.36289 5.59036 4.56551 5.77927C4.74429 5.90915 4.85156 6.18072 4.85156 6.18072C4.85156 6.18072 5.37599 7.49131 6.09112 8.69564C7.46179 11.0453 8.09349 11.553 8.53449 11.305C9.24962 10.939 9.047 7.98721 9.047 7.98721C9.047 7.98721 9.05892 6.91276 8.70135 6.44047C8.42722 6.07445 7.90279 5.95638 7.67633 5.93277C7.48563 5.90915 7.79552 5.48409 8.18884 5.28337C8.78479 5 9.82173 5 11.0613 5C12.0267 5 12.3008 5.07084 12.6703 5.15349C13.8145 5.42506 13.4212 6.47589 13.4212 8.97901C13.4212 9.79371 13.302 10.9036 13.8622 11.2932C14.1125 11.4585 14.7323 11.3168 16.2817 8.73106C16.9969 7.50312 17.5451 6.05084 17.5451 6.05084C17.5451 6.05084 17.6643 5.80289 17.8431 5.68482C18.0338 5.59036 18.296 5.59036 18.296 5.59036H21.7525C21.7525 5.59036 22.8014 5.47229 22.9682 5.93277C23.147 6.41686 22.5749 7.56215 21.1566 9.41588C18.8443 12.4857 18.5821 12.2024 20.501 13.9734Z" fill="black"/>
</svg>
