<svg width="80" height="73" viewBox="0 0 80 73" fill="none" xmlns="http://www.w3.org/2000/svg">
<path d="M28.6287 64.4342C28.1676 64.0715 27.6551 63.7802 27.1081 63.57C26.5963 63.3888 26.0599 63.2871 25.5176 63.2685C24.3324 63.2523 23.1508 63.4011 22.0063 63.7107C20.8459 63.9921 19.7355 64.3438 18.9152 64.6251C18.0949 64.9065 17.5547 65.1175 17.5547 65.1175C17.5547 65.1175 18.0849 65.419 18.9252 65.7808C19.9774 66.2398 21.0782 66.5769 22.2064 66.7857C23.4817 67.0396 24.7973 67.0053 26.0577 66.6852C26.6448 66.5686 27.1912 66.2994 27.6423 65.9044C28.0935 65.5095 28.4336 65.0025 28.6287 64.4342Z" fill="black"/>
<path d="M25.0888 59.2891C25.5257 60.3296 26.2132 61.2447 27.0895 61.9521C27.5069 62.2784 27.9926 62.5051 28.51 62.6153C29.0433 62.7248 29.5971 62.6723 30.1006 62.4646C30.1334 61.3999 29.8477 60.3497 29.2803 59.4499C28.7338 58.6201 28.0583 57.8839 27.2796 57.2692C26.6007 56.7203 25.8891 56.2136 25.1488 55.7518C24.5586 55.38 24.1484 55.1589 24.1484 55.1589C24.1484 55.1589 24.1484 55.2896 24.1484 55.5207C24.1484 55.7518 24.2085 56.0734 24.2785 56.4653C24.4324 57.4364 24.7045 58.3847 25.0888 59.2891Z" fill="black"/>
<path d="M16.7447 61.9921C17.3107 61.9836 17.8673 61.8452 18.3718 61.5874C18.8764 61.3296 19.3156 60.9593 19.6557 60.5049C19.3861 60.0346 19.0262 59.6228 18.5969 59.2933C18.1676 58.9638 17.6774 58.7232 17.1548 58.5855C16.0214 58.2895 14.8547 58.1409 13.6836 58.1433C12.4932 58.1433 11.3027 58.1433 10.4124 58.1433H8.92188L9.23199 58.475C9.44206 58.6659 9.74217 58.9473 10.1223 59.2588C11.0372 60.0162 12.0459 60.6512 13.1234 61.148C14.2509 61.7023 15.4894 61.991 16.7447 61.9921Z" fill="black"/>
<path d="M19.0079 57.3796C19.3157 57.8114 19.7255 58.1596 20.2005 58.3929C20.6754 58.6261 21.2006 58.7372 21.7288 58.7162C22.1458 57.7035 22.1708 56.5709 21.7989 55.5407C21.4615 54.5843 20.9789 53.686 20.3684 52.8777C19.7982 52.0939 19.2179 51.4306 18.7978 50.9483L18.2876 50.3856L18.0975 50.1846C18.0975 50.1846 18.0975 50.3052 17.9975 50.5162C17.8975 50.7272 17.8775 51.0488 17.8174 51.4206C17.6702 52.3864 17.6702 53.369 17.8174 54.3348C17.9516 55.4345 18.3612 56.4821 19.0079 57.3796Z" fill="black"/>
<path d="M4.7433 49.0189C3.92301 48.7577 3.38281 48.6069 3.38281 48.6069C3.38281 48.6069 3.43283 48.7476 3.54287 48.9787C3.65291 49.2099 3.82297 49.5214 4.03305 49.9033C4.24312 50.2851 4.50322 50.7273 4.80332 51.1895C4.95338 51.4207 5.11344 51.6518 5.2835 51.893L5.41354 52.0738L5.5836 52.2949L5.93373 52.7371C6.79786 53.8313 7.94771 54.6628 9.25493 55.1388C9.7966 55.3376 10.3788 55.3985 10.9497 55.3161C11.5205 55.2336 12.0621 55.0105 12.5261 54.6665C12.259 53.5926 11.6163 52.651 10.7155 52.0135C10.4955 51.8325 10.265 51.6647 10.0252 51.5111C9.78512 51.3403 9.52502 51.1895 9.26493 51.0287C9.00484 50.868 8.73474 50.7072 8.45464 50.5564C8.17454 50.4057 7.94445 50.2851 7.68436 50.1545C6.72882 49.714 5.74651 49.3348 4.7433 49.0189Z" fill="black"/>
<path d="M12.8042 51.0892C12.941 51.597 13.2109 52.0588 13.5856 52.4264C13.9603 52.794 14.4263 53.054 14.935 53.1794C15.5932 52.3404 15.9681 51.3126 16.0053 50.2451C16.0321 49.3536 15.9718 48.4617 15.8253 47.5821C15.767 47.1233 15.6734 46.6697 15.5452 46.2255C15.4151 45.7833 15.2851 45.3813 15.155 45.0397C15.025 44.698 14.9149 44.4367 14.8349 44.2458L14.7249 43.9443C14.7249 43.9443 14.6448 44.0448 14.5148 44.2458C14.3848 44.4468 14.2247 44.7282 14.0446 45.0799C13.5811 45.9568 13.209 46.8795 12.9342 47.8333C12.8642 48.1046 12.7942 48.386 12.7342 48.6674C12.6814 48.9329 12.6447 49.2013 12.6241 49.4713C12.5993 49.7387 12.5993 50.0078 12.6241 50.2752C12.6559 50.5521 12.7162 50.8248 12.8042 51.0892Z" fill="black"/>
<path d="M3.48117 44.9291C3.67161 45.1624 3.88623 45.3746 4.1214 45.5622C4.33792 45.7538 4.56867 45.9285 4.81165 46.0848C5.26856 46.4108 5.79286 46.6289 6.34542 46.7229C6.89799 46.8168 7.46454 46.7842 8.0028 46.6274C8.09751 46.0911 8.06321 45.5399 7.90276 45.0196C7.82863 44.7732 7.72447 44.5369 7.59265 44.3162C7.46229 44.0836 7.31866 43.8588 7.1625 43.6429C6.44239 42.7435 5.57664 41.9723 4.60157 41.3618C3.74061 40.7513 2.84548 40.191 1.92061 39.6836L0.660156 39.0002C0.660156 39.0002 0.660156 39.151 0.740185 39.4022C0.820214 39.6534 0.910246 40.0051 1.0603 40.4071C1.38156 41.4654 1.83536 42.4784 2.41079 43.4218C2.72647 43.9525 3.08444 44.4566 3.48117 44.9291Z" fill="black"/>
<path d="M9.74466 44.4769C9.9692 44.9532 10.3141 45.3621 10.745 45.6627C11.7063 45.1216 12.4229 44.229 12.7457 43.1706C12.8255 42.9238 12.889 42.672 12.9358 42.4169L12.9958 42.035C12.9958 41.9044 12.9958 41.7737 13.0558 41.6431C13.1156 41.133 13.1356 40.6189 13.1159 40.1056C13.0824 39.2306 12.9989 38.3583 12.8658 37.4929C12.8058 37.1512 12.7457 36.8698 12.7057 36.6789C12.6657 36.488 12.6457 36.3774 12.6457 36.3774L12.3956 36.6287C12.1728 36.8513 11.9624 37.0861 11.7654 37.3321C11.1448 38.0958 10.6081 38.9246 10.1648 39.8041C9.6763 40.7956 9.4132 41.8836 9.39453 42.9897C9.39698 43.2507 9.43056 43.5105 9.49457 43.7634C9.55106 44.0099 9.63495 44.2493 9.74466 44.4769Z" fill="black"/>
<path d="M1.46053 35.3523C1.6029 35.6177 1.76334 35.8729 1.9407 36.116C2.12169 36.3508 2.31891 36.5724 2.53091 36.7793C2.91298 37.1849 3.38133 37.4986 3.90098 37.697C4.42063 37.8953 4.97817 37.9732 5.53199 37.9249C5.73131 37.4211 5.80348 36.8757 5.74207 36.3371C5.70931 36.081 5.65236 35.8287 5.57201 35.5834C5.49969 35.3327 5.40942 35.0875 5.30191 34.8499C5.06309 34.3401 4.76417 33.861 4.41159 33.4229L3.87139 32.7295C3.69133 32.5085 3.49126 32.2874 3.30119 32.0663C2.5109 31.2021 1.65059 30.3982 1.04037 29.8053C0.430155 29.2124 0 28.8406 0 28.8406C0 28.8406 0 29.4435 0 30.3479C0.0466642 30.8672 0.120123 31.3838 0.220079 31.8955C0.280101 32.1768 0.340122 32.4582 0.410148 32.7597C0.474922 33.0594 0.558451 33.3548 0.660238 33.644C0.889748 34.2303 1.15708 34.801 1.46053 35.3523Z" fill="black"/>
<path d="M8.41269 37.2818C9.43731 36.9366 10.297 36.22 10.8236 35.272C10.9516 35.0534 11.062 34.8249 11.1537 34.5886C11.2681 34.3572 11.3684 34.1189 11.4538 33.8752C11.6113 33.4064 11.7317 32.9259 11.8139 32.4382C11.9039 31.9658 12.004 31.5036 12.054 31.0815C12.054 30.8605 12.054 30.6595 12.114 30.4686C12.174 30.2776 12.114 30.0967 12.114 29.9259C12.1552 29.5623 12.1752 29.1965 12.174 28.8306C11.8037 29.0436 11.4463 29.2784 11.1037 29.534L10.5935 29.9159C10.4134 30.0565 10.2333 30.2173 10.0533 30.3882C9.6768 30.7376 9.32577 31.1137 9.0029 31.5136C8.83284 31.7247 8.66278 31.9458 8.50272 32.1769L8.28264 32.5286C8.21261 32.6492 8.15259 32.7698 8.09257 32.9004C7.85264 33.3807 7.6777 33.891 7.57238 34.4178C7.51664 34.6719 7.48979 34.9314 7.49236 35.1916C7.50714 35.4429 7.54736 35.6921 7.6124 35.9352C7.76007 36.4454 8.03562 36.9091 8.41269 37.2818Z" fill="black"/>
<path d="M4.25089 22.7307C3.98079 22.2182 3.69069 21.7258 3.41059 21.2435L2.64031 19.9773C2.19015 19.2538 1.86003 18.7815 1.86003 18.7815C1.86003 18.7815 1.68997 19.3543 1.5099 20.2386C1.44988 20.6908 1.37986 21.2435 1.33984 21.7861C1.33984 22.0776 1.33984 22.369 1.33984 22.6805C1.33984 22.992 1.33984 23.2935 1.33984 23.605C1.3886 24.2286 1.48898 24.8471 1.63995 25.454C1.79288 26.044 2.02867 26.609 2.3402 27.1322C2.61232 27.6224 2.99454 28.0421 3.45649 28.3578C3.91843 28.6736 4.44734 28.8767 5.00116 28.9511C5.15306 28.7201 5.27413 28.4701 5.36129 28.2074C5.45695 27.9684 5.52411 27.7188 5.56136 27.4638C5.63813 26.9483 5.61435 26.4227 5.49134 25.9163C5.37681 25.373 5.21273 24.8415 5.00116 24.3285C4.78108 23.7959 4.51098 23.2533 4.25089 22.7307Z" fill="black"/>
<path d="M10.7247 27.3333C11.0814 26.9724 11.3906 26.5671 11.645 26.1274C11.9239 25.727 12.1682 25.3034 12.3753 24.8613C12.4853 24.6502 12.5654 24.4392 12.6654 24.2282C12.7654 24.0171 12.8455 23.8262 12.9255 23.6252C13.0855 23.2434 13.2056 22.8816 13.3156 22.5701C13.5457 21.9571 13.6557 21.5652 13.6557 21.5652C13.2373 21.6678 12.8262 21.7987 12.4253 21.9571C11.5247 22.2971 10.6735 22.7567 9.89439 23.3238C9.66446 23.477 9.44703 23.6484 9.24416 23.8363C9.0417 24.0179 8.85123 24.2126 8.67395 24.4191C8.31437 24.8153 8.01442 25.2622 7.78363 25.7456C7.57793 26.207 7.47223 26.7071 7.47352 27.2127C7.46668 27.4644 7.50046 27.7155 7.57356 27.9563C7.65583 28.2142 7.7701 28.4607 7.91368 28.6899C8.97908 28.5793 9.97295 28.0997 10.7247 27.3333Z" fill="black"/>
<path d="M7.21183 19.5553C7.36802 19.3508 7.49902 19.1281 7.60197 18.892C7.70216 18.6565 7.77597 18.4104 7.82205 18.1585C7.82205 17.9173 7.89207 17.656 7.92208 17.3948C7.95567 16.8371 7.92546 16.2774 7.83205 15.7266C7.75298 15.1682 7.64277 14.6146 7.50193 14.0685C7.21183 12.923 6.90172 11.8477 6.61161 11.0538C6.32151 10.26 6.14144 9.70728 6.14144 9.70728C6.14144 9.70728 6.06141 9.82786 5.94137 10.059C5.82133 10.2901 5.66127 10.6217 5.4712 11.0639C5.01672 12.073 4.681 13.132 4.47084 14.2193C4.36958 14.834 4.31274 15.4553 4.30078 16.0783C4.30421 16.381 4.32761 16.6832 4.37081 16.9827C4.41768 17.2709 4.48114 17.5561 4.56087 17.8369C4.70825 18.3714 4.96744 18.8682 5.32115 19.294C5.68481 19.737 6.1523 20.0823 6.68164 20.2989C6.89161 20.0767 7.07003 19.8265 7.21183 19.5553Z" fill="black"/>
<path d="M16.696 15.1941C16.806 15.0333 16.8561 14.9429 16.8561 14.9429H16.5059C16.2658 14.9429 15.9557 14.9429 15.5756 15.0233C15.1955 15.1037 14.7453 15.1439 14.2651 15.2544C14.0152 15.3051 13.7681 15.3688 13.5249 15.4453C13.2748 15.5257 13.0347 15.6162 12.7846 15.7166C12.2728 15.9117 11.7832 16.161 11.3241 16.4603C10.8856 16.742 10.4854 17.0798 10.1336 17.4652C9.97178 17.6586 9.83405 17.8712 9.72349 18.0983C9.61346 18.3199 9.5263 18.5522 9.46339 18.7916C9.39514 19.0335 9.36146 19.2839 9.36336 19.5353C9.38521 19.8045 9.43551 20.0706 9.51341 20.3291C10.059 20.4306 10.6184 20.4306 11.164 20.3291C11.6615 20.2145 12.14 20.0284 12.5845 19.7764C12.7946 19.6458 13.0047 19.5152 13.2047 19.3644L13.4848 19.1333L13.7749 18.8921C14.1365 18.5866 14.4712 18.2504 14.7753 17.8872C15.0771 17.5535 15.3578 17.2011 15.6156 16.8321L15.7957 16.5809L15.9657 16.3397C16.0858 16.1889 16.1858 16.0382 16.2758 15.9076C16.4659 15.5961 16.606 15.3649 16.696 15.1941Z" fill="black"/>
<path d="M10.472 12.1593C10.9447 11.9273 11.3535 11.5822 11.6624 11.1544C11.972 10.7468 12.1996 10.2826 12.3326 9.7877C12.615 8.69265 12.733 7.5614 12.6828 6.43134C12.6828 6.13992 12.6828 5.8485 12.6828 5.56713C12.6828 5.28576 12.6828 5.01443 12.6828 4.74311C12.6828 4.21052 12.5827 3.73821 12.5427 3.28601C12.4527 2.44189 12.3626 1.87915 12.3626 1.87915L12.0926 2.18062C11.8619 2.44396 11.6449 2.71899 11.4423 3.00464C10.7594 3.86319 10.1817 4.80113 9.7217 5.79826C9.4839 6.35739 9.29316 6.93555 9.15149 7.52668C9.02901 8.10095 8.9786 8.68836 9.00144 9.27521C9.01616 9.83582 9.15592 10.386 9.41043 10.8851C9.66493 11.3843 10.0277 11.8197 10.472 12.1593Z" fill="black"/>
<path d="M18.8754 11.5464C19.2479 11.2821 19.6053 10.9969 19.9458 10.6922C20.2659 10.4108 20.566 10.1495 20.7961 9.91842L21.3663 9.34563L21.5764 9.12455C21.1531 9.03879 20.7257 8.97507 20.2959 8.93362C19.867 8.89248 19.4363 8.87236 19.0055 8.87332C18.4688 8.89453 17.9341 8.9516 17.4049 9.04416C16.3274 9.1781 15.2979 9.57107 14.4038 10.1897C14.0002 10.4955 13.6604 10.8779 13.4035 11.3152C13.1754 11.7762 13.0686 12.2883 13.0933 12.8025C14.0783 13.2392 15.1881 13.3 16.2145 12.9733C16.6955 12.8332 17.1587 12.6376 17.595 12.3905C18.0456 12.1474 18.4741 11.8649 18.8754 11.5464Z" fill="black"/>
<path d="M16.7356 57.2089C20.0136 59.7391 23.6569 61.7519 27.5395 63.178C30.6306 64.4341 34.612 66.4942 38.6535 68.4035C35.3405 69.4724 31.9623 70.325 28.5398 70.9559C28.1697 71.0162 30.1104 72.9657 30.4705 72.8954C33.8217 71.8905 37.2229 70.6544 40.5741 69.2978C43.8352 70.9078 47.2781 72.1157 50.8278 72.8954C51.198 72.9557 52.3584 70.9559 51.9883 70.8856C48.7706 70.3037 45.5956 69.5047 42.4848 68.4939C48.0969 66.1223 53.4888 63.4694 58.1905 60.8868C63.1692 58.2344 67.1646 54.0411 69.5846 48.9285C72.0054 44.0564 73.4306 38.7466 73.7761 33.3124C74.1162 25.846 71.6153 18.5203 67.7739 12.2095C66.6288 10.3303 65.3588 8.53078 63.9726 6.82326C64.0716 6.37314 64.0716 5.90672 63.9726 5.4566C63.8849 4.94274 63.6906 4.45314 63.4024 4.0196C62.7463 3.10197 61.8822 2.35448 60.8815 1.83896C60.0074 1.36524 59.076 1.0072 58.1105 0.773772C57.7203 0.683331 57.4102 0.623037 57.1901 0.59289H56.94H56.85V0.673282L57.0201 0.874262L57.4402 1.68823C57.8103 2.36151 58.3005 3.24582 58.8907 4.11004C59.185 4.54548 59.5022 4.96479 59.8411 5.36616C60.0093 5.56193 60.1933 5.74343 60.3913 5.9088C60.9116 6.43989 61.5593 6.82749 62.272 7.03429C62.6547 7.12768 63.049 7.16491 63.4424 7.14483C66.1123 10.3792 68.3272 13.9667 70.0247 17.8068C72.1999 22.562 73.2803 27.7485 73.1859 32.9808C72.8884 38.7664 71.3313 44.416 68.6242 49.5315C66.6816 53.4265 63.7306 56.7242 60.0812 59.078C56.7262 61.134 53.21 62.9119 49.5674 64.3939C46.8664 65.5696 43.6653 66.7655 40.4241 67.8307C33.7794 65.6302 27.3419 62.8424 21.1872 59.5001C18.5412 58.0533 16.1706 56.1482 14.1846 53.8726C12.2757 51.5156 10.7496 48.8702 9.66302 46.0344C7.3726 40.8297 6.2883 35.1706 6.49188 29.4837C7.0451 22.7639 9.34604 16.308 13.1643 10.7625C14.1105 9.31003 15.1358 7.91109 16.2354 6.57204C16.6154 6.58713 16.9958 6.54994 17.3658 6.4615C17.8384 6.32703 18.2849 6.11296 18.6863 5.82841C18.8941 5.68182 19.0913 5.52063 19.2765 5.34606C19.4565 5.17523 19.6366 4.99435 19.8167 4.79337C20.1781 4.40149 20.5123 3.98515 20.817 3.54729C21.4072 2.68308 21.8974 1.78872 22.2676 1.11544C22.4476 0.783821 22.5877 0.502449 22.6877 0.30147C22.7289 0.22666 22.7656 0.149485 22.7977 0.0703429V0H22.7177H22.4676C22.1574 0.0411618 21.8501 0.101571 21.5473 0.180882C20.5861 0.413424 19.6583 0.767991 18.7863 1.23603C17.7879 1.75502 16.9245 2.50187 16.2654 3.41666C15.9596 3.8513 15.7545 4.34916 15.6652 4.87376C15.5656 5.31365 15.5656 5.77038 15.6652 6.21027C13.1191 9.332 10.9841 12.7703 9.31289 16.4401C7.24059 20.8309 6.06375 25.5938 5.85165 30.4484C5.64157 36.0256 7.14211 41.3717 9.23286 46.5268C10.8213 50.6531 13.3983 54.3221 16.7356 57.2089Z" fill="black"/>
<path d="M57.4018 67.3283C58.5311 67.124 59.6324 66.7867 60.683 66.3234C61.5233 65.9516 62.0535 65.6501 62.0535 65.6501C62.0535 65.6501 61.5133 65.4391 60.693 65.1678C59.8727 64.8965 58.7623 64.5347 57.6019 64.2433C56.4671 63.9365 55.2957 63.7877 54.1206 63.8011C52.9816 63.8424 51.8894 64.2671 51.0195 65.007C51.217 65.5694 51.5555 66.0711 52.0023 66.4636C52.4492 66.8562 52.9893 67.1263 53.5704 67.2479C54.8265 67.5547 56.1341 67.5822 57.4018 67.3283Z" fill="black"/>
<path d="M51.1569 63.1578C51.6743 63.0477 52.16 62.8209 52.5774 62.4946C53.4533 61.7909 54.1409 60.8791 54.5781 59.8416C54.9682 58.9309 55.247 57.976 55.4084 56.9978C55.4784 56.6059 55.5084 56.2742 55.5385 56.0532C55.5685 55.8321 55.5385 55.6914 55.5385 55.6914C55.5385 55.6914 55.1383 55.9024 54.5381 56.2742C53.7977 56.736 53.0862 57.2427 52.4073 57.7916C51.6289 58.4106 50.9536 59.1501 50.4066 59.9823C49.8455 60.8846 49.5635 61.9337 49.5963 62.997C50.0886 63.2069 50.6324 63.263 51.1569 63.1578Z" fill="black"/>
<path d="M65.9556 58.7061C64.784 58.7068 63.6173 58.8588 62.4843 59.1583C61.9672 59.2966 61.483 59.5378 61.0603 59.8675C60.6376 60.1972 60.285 60.6087 60.0234 61.0776C60.3626 61.5325 60.8017 61.9025 61.3067 62.1588C61.8117 62.415 62.3688 62.5506 62.9345 62.5548C64.1887 62.564 65.428 62.282 66.5558 61.7308C67.6352 61.2377 68.6444 60.6024 69.5569 59.8416C69.937 59.5401 70.2371 59.2487 70.4472 59.0578L70.7673 58.7262H69.2668C68.3364 58.696 67.146 58.6759 65.9556 58.7061Z" fill="black"/>
<path d="M57.9616 59.289C58.4887 59.3094 59.0127 59.1991 59.4873 58.9677C59.9618 58.7364 60.3724 58.3911 60.6826 57.9625C61.3321 57.0759 61.7484 56.039 61.893 54.9478C62.0403 53.9854 62.0403 53.0061 61.893 52.0437C61.8485 51.736 61.7884 51.4308 61.7129 51.1292C61.6529 50.9182 61.6129 50.7976 61.6129 50.7976L61.4228 50.9986C61.2928 51.1292 61.1227 51.3302 60.9126 51.5613C60.4925 52.0437 59.9123 52.717 59.3421 53.5008C58.7295 54.3078 58.2467 55.2064 57.9116 56.1638C57.5442 57.1761 57.562 58.2891 57.9616 59.289Z" fill="black"/>
<path d="M73.7057 53.2595C73.8257 53.1188 73.9357 52.9681 74.0558 52.8174L74.2158 52.5963L74.3559 52.4154C74.526 52.1843 74.686 51.9431 74.8361 51.712C75.1362 51.2497 75.3963 50.8076 75.6063 50.4358C75.8164 50.0639 75.9865 49.7223 76.0965 49.5012C76.2066 49.2801 76.2566 49.1294 76.2566 49.1294L74.8961 49.5414C73.8944 49.8655 72.9124 50.248 71.955 50.687C71.6949 50.8076 71.4348 50.9382 71.1747 51.0789L70.3745 51.5512L69.6142 52.0336C69.3741 52.2044 69.134 52.3652 68.9239 52.536C68.0071 53.1932 67.3627 54.166 67.1133 55.2693C67.5765 55.615 68.1182 55.8392 68.6893 55.9216C69.2605 56.0041 69.8431 55.9422 70.3845 55.7416C71.7032 55.2469 72.8549 54.3861 73.7057 53.2595Z" fill="black"/>
<path d="M66.7023 48.4261C66.4256 47.473 66.0536 46.5504 65.5919 45.6726C65.4118 45.3209 65.2518 45.0396 65.1217 44.8386L64.9116 44.5371L64.8016 44.8386C64.7216 45.0295 64.6015 45.3008 64.4815 45.6425C64.3614 45.9842 64.2214 46.3761 64.0913 46.8182C63.9651 47.2493 63.8715 47.6894 63.8112 48.1346C63.6647 49.0176 63.6044 49.9129 63.6312 50.8077C63.6642 51.876 64.0396 52.9051 64.7016 53.742C65.2107 53.6176 65.6771 53.3579 66.052 52.9902C66.4269 52.6224 66.6964 52.1601 66.8323 51.6518C66.9105 51.3997 66.9641 51.1406 66.9924 50.878C67.0172 50.6073 67.0172 50.3348 66.9924 50.0641C66.9711 49.7942 66.9344 49.5258 66.8823 49.2601C66.8423 48.9788 66.7723 48.6974 66.7023 48.4261Z" fill="black"/>
<path d="M78.8981 39.9649C78.9581 39.7137 78.9781 39.573 78.9781 39.573L77.7177 40.2463C76.7916 40.7571 75.8933 41.3173 75.0267 41.9245C74.0561 42.5374 73.1968 43.3122 72.4858 44.2156C72.3357 44.4367 72.1757 44.6477 72.0456 44.8789C71.9211 45.1055 71.8205 45.3446 71.7455 45.5923C71.5803 46.1083 71.5459 46.6575 71.6455 47.1901C72.1819 47.3438 72.7456 47.3758 73.2958 47.2837C73.846 47.1916 74.3689 46.9777 74.8266 46.6575C75.0673 46.498 75.2979 46.3234 75.5169 46.135C75.7497 45.9447 75.9641 45.7327 76.1571 45.5019C76.5507 45.0304 76.9085 44.5299 77.2275 44.0046C77.8037 43.0616 78.2576 42.0485 78.578 40.9899C78.7281 40.5678 78.8281 40.196 78.8981 39.9649Z" fill="black"/>
<path d="M68.8833 46.2255C69.3128 45.919 69.6571 45.5073 69.8837 45.0296C70.0013 44.8044 70.0888 44.5645 70.1438 44.3161C70.216 44.0646 70.253 43.8042 70.2538 43.5424C70.229 42.4371 69.9662 41.3504 69.4835 40.3568C69.0379 39.4818 68.5014 38.6565 67.883 37.8948C67.6329 37.5833 67.4228 37.3522 67.2627 37.1814L67.0227 36.9402C67.0227 36.9402 67.0227 37.0507 66.9626 37.2417C66.9026 37.4326 66.8626 37.714 66.8026 38.0657C66.6694 38.9311 66.5859 39.8034 66.5525 40.6784C66.5303 41.1881 66.547 41.6987 66.6025 42.2059L66.6625 42.5978L66.7225 42.9796C66.7705 43.2312 66.834 43.4796 66.9126 43.7233C67.2304 44.7779 67.9347 45.6721 68.8833 46.2255Z" fill="black"/>
<path d="M76.3181 32.6292C76.128 32.8502 75.9279 33.0713 75.7479 33.3024L75.1977 33.9858C74.8536 34.428 74.5584 34.9064 74.3174 35.4127C74.2004 35.6591 74.1034 35.9145 74.0273 36.1765C73.9459 36.4214 73.8889 36.6739 73.8572 36.9301C73.7958 37.4687 73.8679 38.0141 74.0673 38.5179C74.6216 38.5621 75.1788 38.4812 75.698 38.2813C76.2173 38.0813 76.6855 37.7673 77.0683 37.3622C77.2779 37.1565 77.4749 36.9384 77.6586 36.7091C77.8324 36.46 77.9927 36.2017 78.1387 35.9353C78.4497 35.3683 78.714 34.7768 78.929 34.1667C79.0386 33.8792 79.1256 33.5835 79.1891 33.2823C79.2591 32.9909 79.3192 32.6995 79.3792 32.4181C79.4799 31.9066 79.5533 31.39 79.5993 30.8706C79.6493 29.9662 79.5993 29.3733 79.5993 29.3733C79.5993 29.3733 79.1591 29.7451 78.5389 30.3782C77.9187 31.0113 77.1084 31.765 76.3181 32.6292Z" fill="black"/>
<path d="M72.027 36.498C72.092 36.2549 72.1322 36.0057 72.147 35.7544C72.1446 35.4945 72.1178 35.2354 72.067 34.9806C71.96 34.4543 71.7851 33.9442 71.5468 33.4632C71.4868 33.3426 71.4267 33.2221 71.3567 33.1015L71.1366 32.7498C70.9766 32.5086 70.8065 32.2875 70.6365 32.0765C70.3058 31.674 69.9517 31.2914 69.5761 30.9309C69.396 30.7601 69.216 30.6093 69.0359 30.4686L68.5257 30.0767C68.1777 29.8239 67.8171 29.5891 67.4453 29.3733C67.4453 29.3733 67.4453 29.8154 67.5153 30.4686C67.5153 30.6395 67.5153 30.8203 67.5153 31.0113C67.5153 31.2022 67.5153 31.4132 67.5754 31.6243C67.5754 32.0463 67.7254 32.5086 67.8054 32.9809C67.8923 33.4719 68.016 33.9556 68.1756 34.4279C68.2628 34.6677 68.363 34.9025 68.4757 35.1314C68.5674 35.3676 68.6778 35.5961 68.8058 35.8147C69.3361 36.7596 70.1944 37.4751 71.2167 37.8245C71.5935 37.4578 71.8721 37.0016 72.027 36.498Z" fill="black"/>
<path d="M74.1363 26.479C73.9999 26.9828 73.9626 27.5084 74.0263 28.0266C74.0647 28.2845 74.1318 28.5373 74.2263 28.7802C74.3137 29.0396 74.4348 29.2863 74.5865 29.5138C75.1437 29.438 75.6755 29.2322 76.1393 28.9129C76.6031 28.5936 76.9861 28.1696 77.2574 27.6749C77.5873 27.1631 77.8464 26.6087 78.0277 26.0268C78.1779 25.4198 78.2783 24.8013 78.3278 24.1778C78.3278 23.8562 78.3278 23.5447 78.3278 23.2432C78.3278 22.9418 78.3278 22.6403 78.3278 22.3589C78.3278 21.7861 78.2178 21.2535 78.1578 20.8013C77.9777 19.917 77.8076 19.3442 77.8076 19.3442C77.8076 19.3442 77.4775 19.8165 77.0274 20.5501C76.8073 20.9119 76.5372 21.3339 76.2571 21.8062C75.977 22.2785 75.6869 22.8111 75.4168 23.3035C75.1467 23.7959 74.8766 24.3084 74.6565 24.8913C74.4347 25.4033 74.2605 25.9348 74.1363 26.479Z" fill="black"/>
<path d="M71.8555 26.3282C71.6223 25.8462 71.3226 25.3997 70.9652 25.0018C70.7854 24.7977 70.595 24.6031 70.395 24.4189C70.1871 24.2371 69.97 24.0661 69.7448 23.9064C68.9657 23.3394 68.1145 22.8798 67.2139 22.5398C66.8249 22.3748 66.4275 22.2306 66.0234 22.1077C66.0234 22.1077 66.1335 22.5197 66.3636 23.1126C66.4736 23.4241 66.5836 23.7858 66.7537 24.1778L67.0138 24.7807C67.1138 24.9817 67.1939 25.1927 67.3039 25.4037C67.5047 25.8663 67.7457 26.3102 68.0242 26.7302C68.2813 27.1558 68.5905 27.5474 68.9445 27.8959C69.6907 28.6732 70.6863 29.1608 71.7555 29.2726C71.8971 29.0459 72.0113 28.803 72.0956 28.5491C72.1681 28.3047 72.2019 28.0503 72.1957 27.7954C72.1817 27.2883 72.0661 26.7893 71.8555 26.3282Z" fill="black"/>
<path d="M73.4972 10.1897C73.4972 10.1897 73.3071 10.7223 73.027 11.5363C72.7469 12.3502 72.4268 13.4355 72.1367 14.551C71.993 15.1167 71.8828 15.6905 71.8066 16.2693C71.7129 16.8167 71.6827 17.3731 71.7166 17.9274C71.7166 18.1887 71.7166 18.45 71.8166 18.7012C71.8641 18.9496 71.9379 19.1921 72.0367 19.4247C72.1396 19.6608 72.2706 19.8835 72.4268 20.0879C72.5752 20.3154 72.7536 20.5216 72.957 20.7009C73.4847 20.4814 73.9516 20.1366 74.3175 19.696C74.6733 19.2678 74.9326 18.7673 75.0778 18.2289C75.1575 17.9481 75.221 17.6629 75.2678 17.3747C75.311 17.0751 75.3344 16.773 75.3379 16.4703C75.3259 15.8506 75.269 15.2327 75.1678 14.6213C74.9592 13.5336 74.6234 12.4745 74.1674 11.4659C73.9874 11.0539 73.8173 10.7223 73.7073 10.461L73.4972 10.1897Z" fill="black"/>
<path d="M69.9138 18.7213C69.808 18.4916 69.6699 18.2784 69.5037 18.0882C69.1543 17.7003 68.7538 17.3622 68.3132 17.0833C67.8541 16.784 67.3645 16.5347 66.8527 16.3397C66.6026 16.2392 66.3525 16.1488 66.1124 16.0784C65.8693 15.9987 65.6222 15.9316 65.3722 15.8774C64.882 15.7669 64.4419 15.6966 64.0617 15.6463C63.6816 15.5961 63.3715 15.576 63.1414 15.5659H62.7812L62.9313 15.8272C63.0313 15.988 63.1714 16.2292 63.3515 16.5005C63.5315 16.7718 63.5415 16.7818 63.6616 16.9426L63.8316 17.1838L64.0117 17.435C64.2695 17.8041 64.5502 18.1565 64.852 18.4902C65.1559 18.8536 65.4906 19.1898 65.8524 19.4951C65.9445 19.5808 66.0414 19.6614 66.1425 19.7362L66.4226 19.9674C66.6206 20.1175 66.8278 20.2551 67.0428 20.3794C67.4854 20.6354 67.9645 20.8218 68.4633 20.9321C69.0084 21.0386 69.5688 21.0386 70.1139 20.9321C70.1918 20.6735 70.2421 20.4074 70.2639 20.1382C70.2658 19.8901 70.2322 19.6431 70.1639 19.4046C70.1052 19.1685 70.0213 18.9394 69.9138 18.7213Z" fill="black"/>
<path d="M69.1655 12.722C69.6113 12.3855 69.976 11.9523 70.2323 11.4548C70.4886 10.9572 70.63 10.408 70.646 9.848C70.6609 9.26088 70.6072 8.67402 70.4859 8.09948C70.3458 7.50465 70.155 6.92302 69.9157 6.361C69.6815 5.8256 69.4142 5.30539 69.1154 4.80341C68.859 4.37244 68.5784 3.95642 68.2751 3.55733C68.025 3.20562 67.785 2.92425 67.6249 2.73332L67.3648 2.44189C67.3648 2.44189 67.2648 3.00464 67.1747 3.8387C67.1247 4.27081 67.0747 4.76321 67.0347 5.29581C67.0347 5.56713 67.0347 5.83845 67.0347 6.11982C67.0347 6.4012 67.0347 6.69262 67.0347 6.98404C66.9845 8.11409 67.1025 9.24535 67.3848 10.3404C67.5065 10.837 67.724 11.3047 68.025 11.7171C68.3218 12.137 68.7124 12.4811 69.1655 12.722Z" fill="black"/>
<path d="M65.2121 10.7022C64.3172 10.0867 63.2878 9.69716 62.211 9.56662C61.6951 9.4827 61.1731 9.44236 60.6505 9.44603C60.1603 9.44603 59.7101 9.44603 59.32 9.44603C58.8826 9.50338 58.4485 9.58388 58.0195 9.68721L58.2296 9.90828L58.7898 10.4811C59.0299 10.7223 59.33 10.9735 59.6501 11.2649C59.9911 11.569 60.3485 11.8542 60.7205 12.1191C61.1136 12.4116 61.5283 12.6736 61.9609 12.9029C62.3931 13.1583 62.8574 13.3544 63.3414 13.4857C64.3665 13.8165 65.4766 13.7593 66.4626 13.3249C66.489 12.8074 66.3822 12.2917 66.1525 11.8276C65.9133 11.3957 65.5941 11.0137 65.2121 10.7022Z" fill="black"/>
</svg>
