<svg width="21" height="20" viewBox="0 0 21 20" fill="none" xmlns="http://www.w3.org/2000/svg">
<path d="M14.7734 11.96C15.0234 12.09 15.1834 12.16 15.2334 12.26C15.2934 12.37 15.2734 12.87 15.0234 13.44C14.8234 14 13.7834 14.54 13.3234 14.56C12.8634 14.58 12.8534 14.92 10.3634 13.83C7.87344 12.74 6.37344 10.08 6.25344 9.91C6.13344 9.74 5.29344 8.53 5.33344 7.3C5.38344 6.08 6.02344 5.5 6.28344 5.26C6.52344 5 6.79344 4.97 6.96344 5H7.43344C7.58344 5 7.79344 4.94 7.98344 5.45L8.67344 7.32C8.73344 7.45 8.77344 7.6 8.68344 7.76L8.41344 8.17L8.02344 8.59C7.90344 8.71 7.76344 8.84 7.90344 9.09C8.02344 9.35 8.52344 10.18 9.22344 10.87C10.1334 11.75 10.9334 12.04 11.1734 12.17C11.4134 12.31 11.5634 12.29 11.7134 12.13L12.5234 11.19C12.7134 10.94 12.8734 11 13.1034 11.08L14.7734 11.96ZM10.0234 0C11.3367 0 12.637 0.258658 13.8503 0.761205C15.0635 1.26375 16.1659 2.00035 17.0945 2.92893C18.0231 3.85752 18.7597 4.95991 19.2622 6.17317C19.7648 7.38642 20.0234 8.68678 20.0234 10C20.0234 12.6522 18.9699 15.1957 17.0945 17.0711C15.2191 18.9464 12.6756 20 10.0234 20C8.05344 20 6.22344 19.43 4.67344 18.45L0.0234375 20L1.57344 15.35C0.593437 13.8 0.0234375 11.97 0.0234375 10C0.0234375 7.34784 1.07701 4.8043 2.95237 2.92893C4.82773 1.05357 7.37127 0 10.0234 0ZM10.0234 2C7.90171 2 5.86687 2.84285 4.36658 4.34315C2.86629 5.84344 2.02344 7.87827 2.02344 10C2.02344 11.72 2.56344 13.31 3.48344 14.61L2.52344 17.5L5.41344 16.54C6.71344 17.46 8.30344 18 10.0234 18C12.1452 18 14.18 17.1571 15.6803 15.6569C17.1806 14.1566 18.0234 12.1217 18.0234 10C18.0234 7.87827 17.1806 5.84344 15.6803 4.34315C14.18 2.84285 12.1452 2 10.0234 2Z" fill="black"/>
</svg>
